<?xml version="1.0" standalone="no"?>
<!DOCTYPE svg PUBLIC "-//W3C//DTD SVG 20010904//EN"
 "http://www.w3.org/TR/2001/REC-SVG-20010904/DTD/svg10.dtd">
<svg version="1.0" xmlns="http://www.w3.org/2000/svg"
 width="900.000000pt" height="1600.000000pt" viewBox="0 0 900.000000 1600.000000"
 preserveAspectRatio="xMidYMid meet">
<metadata>
Created by potrace 1.15, written by Peter Selinger 2001-2017
</metadata>
<g transform="translate(0.000000,1600.000000) scale(0.100000,-0.100000)"
fill="#000000" stroke="none">
<path d="M1450 15938 c-148 -119 -407 -328 -539 -433 l-134 -107 -51 6 c-86
11 -576 58 -654 63 l-72 5 0 -2815 0 -2816 58 -27 c31 -15 133 -64 225 -110
93 -46 173 -84 178 -84 4 0 92 -40 195 -90 103 -49 188 -90 190 -90 7 0 749
-372 757 -379 4 -4 16 -106 26 -227 11 -120 23 -230 27 -243 5 -17 4 -22 -4
-17 -7 4 -12 15 -13 24 0 10 -3 12 -5 5 -11 -25 15 -50 56 -56 23 -3 44 -7 46
-10 2 -2 -3 -19 -13 -37 -16 -33 -16 -34 12 -58 24 -20 36 -23 71 -19 42 4 43
4 28 -18 -8 -13 -42 -46 -75 -75 l-61 -53 4 -53 c4 -51 4 -53 -23 -59 -47 -11
-137 5 -142 24 -4 14 -5 14 -6 -1 -3 -51 160 -68 354 -37 133 22 192 25 309
15 142 -11 524 30 585 64 8 4 22 3 32 -3 12 -8 46 -4 130 16 63 15 149 32 191
38 86 13 63 19 263 -71 33 -15 98 -45 145 -65 47 -21 119 -53 160 -73 41 -19
160 -72 264 -119 103 -46 211 -95 239 -109 52 -27 66 -23 67 19 0 9 5 17 10
17 6 0 8 -10 5 -23 -5 -20 1 -26 49 -46 56 -23 76 -22 76 5 0 8 6 14 13 14 19
0 216 -75 228 -87 5 -5 5 -22 -1 -43 -14 -48 -13 -60 5 -60 10 0 15 -10 15
-34 0 -18 2 -46 4 -62 2 -16 1 -22 -1 -14 -8 24 -20 27 -75 20 -28 -4 -73 -3
-99 2 -38 7 -54 6 -73 -7 -22 -15 -27 -15 -62 0 -21 8 -44 13 -51 11 -9 -4
-12 4 -10 26 l2 32 -170 72 c-93 40 -183 78 -198 84 -15 7 -49 20 -75 30 -81
30 -455 182 -498 201 -41 19 -72 26 -44 10 8 -5 18 -10 23 -10 11 -2 47 -40
47 -51 0 -14 17 -12 23 3 4 10 7 10 18 0 11 -11 10 -13 -4 -13 -9 0 -17 -4
-17 -10 0 -5 5 -10 10 -10 6 0 10 -6 10 -14 0 -9 8 -12 24 -9 15 3 25 -1 30
-12 5 -13 1 -15 -17 -11 -12 3 -16 3 -9 0 6 -3 12 -13 12 -21 0 -10 6 -13 16
-9 8 3 13 2 10 -3 -7 -10 17 -21 45 -21 10 0 19 -4 19 -8 0 -4 25 -16 55 -27
30 -10 55 -22 55 -27 0 -11 7 -13 -108 36 -91 39 -106 48 -131 87 -40 63 -75
95 -139 126 -65 32 -146 40 -221 24 -70 -15 -193 -73 -255 -120 -34 -25 -71
-42 -111 -51 -33 -7 -53 -15 -45 -18 8 -3 18 -9 21 -14 3 -5 14 -2 23 7 9 10
19 15 21 13 3 -2 -8 -17 -24 -32 l-29 -28 -46 21 c-57 25 -60 20 -6 -10 22
-13 40 -26 40 -31 0 -20 -36 -20 -74 -1 -23 12 -113 56 -201 98 -88 42 -228
110 -311 151 -98 48 -163 74 -185 74 -18 0 -83 -7 -144 -16 -108 -16 -144 -30
-176 -71 -13 -17 -13 -17 13 -1 l26 17 4 -51 c2 -29 -2 -62 -8 -74 -8 -15 -9
-25 -2 -32 25 -25 -27 -52 -172 -89 -128 -34 -419 -44 -526 -19 -92 21 -133
36 -170 63 -27 19 -35 21 -58 10 -36 -17 -33 -30 5 -22 23 5 30 4 24 -5 -4 -7
1 -13 14 -17 12 -3 21 -10 21 -16 0 -6 3 -7 7 -4 14 14 43 -27 43 -60 0 -18 7
-49 15 -69 8 -19 14 -38 14 -41 0 -4 4 -9 10 -11 7 -2 8 3 4 15 -6 15 -4 16 9
5 18 -14 162 -42 223 -42 37 -1 39 -2 21 -15 -19 -14 -19 -15 -1 -15 10 0 15
-3 12 -7 -4 -3 -35 -6 -69 -5 -73 1 -67 -4 16 -13 32 -4 54 -10 50 -14 -8 -7
-111 0 -179 13 -16 3 -22 3 -12 0 9 -3 17 -10 17 -15 0 -15 -33 -10 -71 10
l-36 20 -2 -72 c-2 -72 -2 -72 36 -104 l38 -33 -27 0 c-16 0 -28 5 -28 10 0 6
-5 10 -10 10 -6 0 -8 -11 -4 -25 4 -16 2 -25 -6 -25 -13 0 -213 136 -264 180
-17 14 -44 34 -59 43 -15 10 -25 23 -21 29 4 7 3 8 -4 4 -12 -7 -45 15 -137
89 -27 23 -67 52 -87 65 -41 27 -48 40 -20 41 14 0 14 2 -3 9 -18 7 -18 8 8
15 15 4 36 5 47 2 11 -3 20 -2 20 2 0 4 37 15 83 25 97 21 150 36 144 42 -2 2
-44 -5 -93 -17 -120 -28 -218 -36 -212 -18 3 9 27 17 64 21 73 8 215 44 223
56 10 15 68 42 91 42 16 0 20 5 16 18 -8 24 40 73 49 50 3 -8 5 -21 3 -29 -2
-9 4 -13 15 -11 20 3 20 2 7 -33 -8 -20 -6 -29 10 -45 26 -26 49 -26 25 0 -16
18 -16 20 -2 20 9 0 26 -13 39 -30 12 -16 26 -30 31 -30 5 0 5 5 -1 13 -9 11
-15 63 -13 112 1 18 3 17 24 -8 27 -34 92 -44 117 -17 8 9 11 10 6 3 -14 -22
88 -16 136 7 37 18 43 18 58 5 25 -22 166 -10 173 16 3 9 14 19 26 21 40 6 26
23 -21 26 -37 2 -51 -1 -64 -17 -15 -17 -20 -18 -38 -6 -15 9 -62 13 -156 13
-101 0 -147 4 -185 17 -34 12 -50 14 -53 6 -2 -6 -8 -11 -14 -11 -7 0 -8 17
-4 48 11 78 15 84 42 78 21 -6 24 -3 24 19 0 28 26 86 44 97 8 5 7 13 -2 29
-8 13 -9 18 -2 14 7 -4 11 -1 9 6 -1 8 -1 19 0 25 2 21 62 88 87 99 14 5 25
13 25 18 -1 4 -1 9 -1 12 0 3 10 1 22 -6 18 -10 20 -9 15 5 -4 9 -1 16 6 16 7
1 -6 10 -29 21 -24 12 -47 33 -57 52 -9 18 -40 64 -69 104 -195 264 -236 321
-264 361 -41 58 -91 112 -103 112 -6 0 -21 10 -34 23 -13 12 -43 38 -65 57
-23 20 -36 37 -30 41 5 4 6 9 2 12 -13 7 -380 147 -387 147 -4 0 -7 -27 -7
-59 l0 -59 38 -12 c20 -7 54 -23 74 -37 20 -14 42 -22 47 -18 7 4 8 0 4 -10
-5 -15 -3 -15 15 -4 18 11 24 11 40 -5 11 -9 33 -21 48 -25 16 -4 29 -14 29
-22 0 -8 7 -17 15 -21 8 -4 -2 -5 -22 -2 -46 7 -136 -14 -164 -38 -11 -10 -27
-18 -36 -18 -8 0 -27 -9 -41 -20 -14 -11 -30 -20 -36 -20 -7 0 -11 -21 -11
-50 0 -43 3 -50 20 -50 10 0 24 9 30 20 7 13 21 20 40 20 20 0 30 5 30 15 0 9
8 18 17 22 10 3 27 14 38 23 26 23 100 40 169 40 43 0 56 3 56 15 0 22 16 18
38 -10 11 -14 24 -25 29 -25 4 0 13 -20 19 -45 8 -35 8 -45 -2 -41 -15 6 -84
-41 -84 -57 0 -19 -51 -39 -67 -26 -10 9 -13 8 -13 -5 0 -12 -10 -16 -40 -16
-22 0 -40 -4 -40 -9 0 -6 -21 -11 -47 -13 -39 -2 -50 -7 -60 -28 -7 -14 -22
-33 -33 -42 -13 -10 -22 -31 -24 -53 -1 -20 -8 -40 -16 -45 -10 -6 -8 -15 11
-41 22 -32 57 -69 66 -69 2 0 1 4 -2 10 -3 5 0 16 7 23 10 12 15 11 32 -5 11
-10 30 -18 43 -18 17 0 23 -6 23 -23 0 -13 5 -28 11 -34 14 -14 40 -135 28
-127 -18 11 -7 -11 37 -77 51 -74 70 -88 79 -58 4 11 15 19 29 19 18 0 26 -9
36 -40 7 -21 17 -37 21 -34 14 8 11 -4 -7 -32 -14 -20 -15 -30 -5 -50 14 -32
15 -31 -16 -37 -30 -6 -167 -69 -195 -89 -14 -10 -33 -9 -95 4 -43 9 -91 21
-108 28 -28 11 -29 13 -10 20 12 4 59 15 105 24 106 21 270 56 289 62 9 3 11
8 5 14 -5 5 -44 1 -99 -11 -50 -11 -146 -30 -215 -42 l-125 -22 -3 -33 c-3
-27 1 -34 25 -44 l28 -12 -27 -4 c-20 -2 -28 -9 -28 -23 0 -17 8 -19 85 -19
47 0 85 -3 85 -6 0 -3 -11 -20 -25 -39 -20 -26 -36 -34 -72 -40 -63 -9 -73
-14 -73 -37 0 -17 4 -19 26 -14 80 20 84 20 84 -7 0 -29 -17 -42 -73 -52 -20
-4 -37 -12 -37 -17 0 -6 14 -8 36 -3 26 4 40 2 46 -7 7 -10 8 -8 4 5 -3 9 -1
17 5 17 15 0 86 -74 90 -95 2 -10 21 -27 42 -38 20 -10 37 -26 37 -35 1 -10
12 -26 26 -37 42 -33 64 -58 58 -67 -3 -4 -1 -8 5 -8 5 0 13 -9 16 -20 3 -11
12 -20 20 -20 8 0 17 -9 20 -20 3 -11 13 -20 22 -20 13 0 13 3 3 15 -10 12
-10 15 4 15 9 0 16 -7 16 -16 0 -10 5 -14 15 -10 9 3 23 2 33 -4 9 -5 29 -11
43 -14 14 -3 38 -17 53 -31 15 -14 29 -25 31 -25 2 0 16 -11 31 -25 15 -14 33
-25 42 -25 9 0 12 -6 8 -16 -5 -12 -1 -14 16 -8 20 6 21 5 9 -10 -12 -14 -10
-16 17 -16 17 0 37 -7 46 -15 16 -17 30 -20 21 -5 -11 17 56 -12 82 -36 15
-14 45 -28 67 -31 l41 -8 -45 -5 c-45 -5 -45 -5 -47 -45 -5 -97 110 -141 252
-96 l60 19 -50 -3 -50 -4 53 10 c29 6 50 14 47 19 -3 5 13 16 35 26 39 18 52
33 28 35 -7 0 -1 5 15 11 15 5 27 14 27 19 0 15 -57 10 -64 -6 -3 -8 -16 -15
-28 -15 -13 0 -32 -7 -42 -15 -11 -8 -29 -15 -40 -16 -21 0 -21 -1 -1 -9 l20
-9 -20 0 c-11 -1 -33 -8 -49 -16 -55 -29 -70 -20 -52 30 21 56 29 64 72 71 23
3 47 3 52 0 6 -3 13 1 16 10 5 14 1 16 -26 10 -22 -4 -28 -3 -18 3 23 14 99
25 80 12 -8 -6 -10 -11 -4 -11 14 0 40 30 28 31 -7 0 73 28 84 29 1 0 2 -4 2
-9 0 -5 -14 -14 -30 -21 -48 -20 -45 -30 7 -29 26 1 38 4 26 6 -28 5 -30 20
-4 28 31 10 23 45 -10 45 -15 0 -29 5 -31 10 -2 6 -14 12 -28 12 -14 1 -36 9
-50 19 -14 10 -39 19 -55 22 -19 3 -14 4 13 3 24 -1 41 3 38 9 -1 5 -12 9 -22
7 -16 -2 -17 -1 -4 8 8 5 33 10 55 10 22 0 60 4 85 9 47 10 130 22 95 14 -49
-11 -35 -23 23 -18 58 4 62 3 53 -14 -12 -21 -5 -31 20 -31 26 0 13 -29 -17
-36 -13 -3 -22 -10 -19 -14 3 -5 -3 -11 -12 -13 -10 -3 -3 -5 15 -6 25 -1 32
-5 32 -21 0 -11 6 -20 13 -20 29 0 56 13 60 29 3 10 5 8 6 -7 1 -14 5 -20 12
-17 6 4 8 13 5 21 -3 8 0 17 8 20 14 6 85 -32 102 -55 6 -8 15 -12 20 -9 5 3
24 -5 42 -17 l34 -23 -55 -12 c-43 -10 -66 -10 -102 -1 -26 7 -48 11 -49 9 -1
-2 -7 -15 -14 -30 -11 -27 -27 -33 -79 -31 -7 1 -10 -3 -7 -8 3 -5 -9 -9 -26
-9 -18 0 -29 4 -25 10 12 20 -20 9 -50 -16 -29 -25 -29 -26 -5 -20 14 4 55 8
92 9 55 2 72 7 93 27 l25 23 0 -25 c0 -33 6 -38 39 -28 17 5 85 -3 192 -21 90
-15 212 -33 271 -40 118 -13 120 -12 151 46 8 17 31 47 51 68 30 32 38 37 55
28 31 -17 35 -13 10 9 -13 10 -18 19 -11 20 6 0 12 -4 12 -8 0 -5 17 -18 38
-29 l37 -21 245 54 c135 30 270 60 300 68 49 13 57 13 70 -1 13 -14 13 -15 -1
-10 -20 7 -51 -27 -43 -48 4 -11 2 -13 -9 -9 -8 3 -18 1 -22 -5 -3 -6 -17 -8
-31 -5 -18 5 -25 3 -24 -7 5 -32 -4 -38 -84 -64 -76 -24 -95 -26 -215 -23 -72
2 -131 2 -131 1 0 -1 14 -10 31 -19 17 -9 84 -53 148 -98 169 -121 335 -231
344 -228 4 1 6 -2 5 -7 -2 -5 19 -24 46 -43 75 -51 77 -60 32 -105 -21 -21
-45 -52 -52 -70 -8 -17 -19 -35 -24 -38 -6 -4 -16 -17 -21 -28 -17 -38 -36
-68 -60 -95 -13 -15 -29 -36 -35 -47 -5 -11 -18 -32 -28 -47 -17 -25 -17 -28
-2 -28 19 0 348 79 481 115 153 42 170 42 213 8 92 -73 159 -75 417 -13 66 16
221 52 345 80 641 146 759 175 777 192 7 7 15 39 19 70 5 44 3 63 -9 82 -9 13
-76 57 -148 97 l-132 73 39 13 c49 17 60 28 46 45 -14 17 22 63 63 78 22 9 26
13 15 20 -8 5 -17 7 -22 4 -4 -2 -11 4 -17 14 -9 17 4 19 267 30 152 7 360 17
462 23 l185 10 155 -71 c347 -159 1129 -510 1138 -510 5 0 14 98 21 218 18
303 21 346 32 356 5 6 9 -31 10 -95 1 -82 3 -96 10 -64 4 22 8 76 8 119 1 82
6 96 13 36 3 -19 10 -48 17 -64 l12 -29 22 22 c13 11 26 21 30 21 9 0 7 -147
-3 -225 -4 -33 -8 -49 -9 -36 -1 28 -15 19 -26 -17 -5 -19 -3 -23 12 -20 13 2
19 -4 21 -25 3 -25 1 -27 -22 -21 -16 4 -26 2 -26 -5 0 -6 -4 -11 -10 -11 -5
0 -10 7 -10 15 0 8 -5 15 -11 15 -5 0 -7 -4 -4 -10 3 -5 3 -10 0 -10 -3 0 -11
15 -18 33 -12 31 -12 30 -17 -38 -3 -38 -3 -81 1 -95 6 -20 7 -16 8 20 1 25 6
52 11 60 6 10 9 -37 9 -140 -1 -85 -5 -139 -8 -120 -6 29 -8 21 -14 -45 -18
-212 -20 -265 -9 -265 6 0 13 21 15 48 3 34 4 29 4 -23 1 -128 3 -141 12 -125
6 8 7 18 5 22 -3 4 2 8 10 8 9 0 16 -6 16 -14 0 -24 22 -30 37 -11 11 17 13
12 13 -38 0 -54 -13 -77 -23 -39 -3 9 -5 -1 -6 -23 0 -22 5 -50 13 -61 12 -17
13 -66 8 -298 -4 -153 -4 -280 0 -282 10 -7 96 -28 188 -48 133 -29 500 -68
691 -73 l185 -6 18 304 c9 167 26 475 37 684 11 209 21 394 22 411 1 17 8 38
16 47 12 15 11 17 -4 17 -14 0 -16 6 -12 33 4 17 9 112 13 210 7 173 7 177 29
177 28 0 62 -24 47 -34 -7 -4 -12 -26 -12 -49 0 -27 3 -37 9 -29 6 11 10 10
15 -5 7 -17 8 -17 22 1 11 16 14 17 14 4 0 -8 6 -21 14 -27 8 -7 16 -44 20
-97 6 -74 5 -89 -10 -105 -16 -17 -16 -19 -1 -19 21 0 21 -20 2 -335 -16 -256
-14 -247 -70 -280 -12 -7 -20 -34 -27 -95 -7 -51 -16 -88 -24 -93 -8 -4 -14
-19 -14 -32 0 -13 -5 -27 -10 -30 -6 -4 -8 -11 -5 -16 4 -5 -3 -21 -14 -35
-21 -27 -30 -91 -11 -79 5 3 10 0 10 -7 0 -10 2 -10 9 1 6 9 8 5 8 -14 1 -19
-2 -23 -8 -14 -7 11 -9 10 -9 -3 0 -10 6 -18 14 -18 17 0 26 -57 12 -81 -5 -9
-5 -25 -1 -35 7 -16 9 -13 14 16 3 19 11 35 18 35 44 0 63 62 78 247 l7 76 34
-14 c18 -8 97 -43 176 -79 78 -36 145 -65 150 -65 4 0 8 370 8 823 l0 822 -51
23 c-28 13 -48 26 -46 29 3 2 23 -5 46 -16 22 -12 43 -21 46 -21 3 0 5 259 5
575 l0 575 -25 10 c-32 12 -32 19 0 12 l25 -4 0 516 c0 337 -3 516 -10 516 -5
0 -10 7 -10 15 0 8 -8 15 -18 15 -14 0 -22 -12 -30 -52 -17 -77 -30 -154 -37
-223 -11 -104 -13 -108 -50 -102 -29 5 -32 3 -33 -22 0 -14 -8 -67 -16 -116
-21 -117 -20 -122 8 -129 32 -8 36 -32 20 -118 -8 -40 -14 -87 -14 -105 0 -17
-4 -35 -10 -38 -5 -3 -10 -1 -10 5 0 6 -8 10 -17 8 -13 -2 -18 4 -18 19 0 12
-4 25 -7 29 -6 6 -10 -6 -23 -70 -2 -10 5 -28 16 -39 25 -27 25 -45 0 -23 -19
17 -20 16 -28 -56 -4 -40 -6 -86 -5 -101 3 -25 1 -28 -17 -22 -16 5 -21 2 -21
-12 0 -10 4 -25 9 -32 16 -25 -30 -88 -52 -74 -5 3 -5 8 1 12 5 3 12 17 16 31
3 14 3 19 0 13 -9 -20 -24 -15 -24 6 0 11 -4 23 -10 26 -5 3 -10 0 -10 -7 0
-9 -3 -9 -10 2 -16 25 -12 90 5 90 13 0 14 4 5 20 -6 11 -18 20 -28 20 -17 0
-18 -3 -24 -91 -3 -40 -5 -44 -16 -30 -12 14 -13 12 -8 -14 5 -24 4 -27 -4
-12 -8 13 -6 36 9 90 11 41 25 100 30 133 6 32 12 70 15 84 5 27 29 202 46
335 33 261 52 465 70 738 20 316 18 379 -15 423 -12 17 -14 16 -19 -16 -3 -19
-7 -120 -11 -225 -6 -222 -10 -284 -26 -420 -6 -55 -13 -124 -15 -154 -2 -30
-8 -57 -12 -60 -4 -3 -7 -30 -7 -58 0 -29 -3 -53 -6 -53 -6 0 -8 -13 -8 -82
-1 -15 -5 -29 -10 -32 -4 -3 -6 -17 -3 -31 2 -15 0 -25 -7 -25 -13 0 -14 60
-1 115 5 22 10 58 11 80 1 36 5 67 23 185 3 19 8 69 12 110 3 41 7 93 10 115
2 22 7 148 10 280 6 204 4 248 -9 295 -9 30 -23 64 -32 75 -16 19 -16 19 -9
-5 4 -14 7 -32 7 -40 0 -8 5 -18 11 -22 8 -6 7 -11 -3 -17 -7 -5 -11 -13 -7
-19 3 -6 1 -14 -5 -18 -8 -5 -9 -3 -4 6 5 8 4 11 -2 7 -6 -4 -9 -23 -8 -44 2
-21 1 -32 -2 -25 -5 13 -33 17 -33 4 0 -4 4 -12 10 -18 6 -6 0 -21 -18 -42
-23 -26 -30 -30 -41 -20 -8 7 -7 2 2 -12 10 -13 17 -31 16 -40 0 -10 -2 -11
-6 -2 -2 6 -9 12 -14 12 -6 0 -5 -8 1 -20 13 -24 7 -25 -28 -3 l-27 17 23 -25
c27 -31 28 -43 2 -29 -12 6 -20 7 -20 1 0 -5 5 -11 12 -13 7 -3 9 -11 3 -24
-4 -10 -7 -24 -7 -30 1 -5 -7 -20 -17 -31 -15 -16 -17 -23 -8 -33 9 -10 9 -14
0 -17 -8 -3 -11 -15 -8 -31 3 -15 2 -21 -1 -14 -8 17 -27 15 -20 -3 3 -8 9
-22 12 -30 4 -10 2 -13 -8 -10 -11 4 -14 -6 -16 -42 -4 -126 -4 -125 -29 -118
l-24 6 21 -21 c26 -26 26 -43 -1 -35 -18 6 -19 5 -10 -13 15 -28 14 -32 -6
-25 -15 5 -16 4 -7 -8 20 -26 24 -49 8 -42 -12 4 -14 0 -8 -21 4 -16 2 -26 -5
-26 -6 0 -11 4 -11 9 0 5 -8 12 -17 15 -14 6 -12 2 5 -17 25 -27 29 -49 7 -41
-17 7 -21 -11 -5 -21 15 -9 12 -25 -5 -25 -14 0 -13 -3 1 -25 15 -23 15 -25 0
-25 -18 0 -21 -15 -6 -25 8 -5 7 -11 0 -20 -8 -10 -8 -19 0 -34 9 -17 8 -21
-5 -21 -18 0 -19 -12 -3 -28 9 -9 9 -12 -1 -12 -9 0 -11 -8 -7 -25 5 -18 2
-25 -8 -25 -10 0 -13 -6 -9 -17 5 -12 2 -15 -10 -10 -21 8 -21 4 -2 -33 14
-26 14 -29 0 -24 -11 4 -15 -1 -17 -17 -2 -43 -3 -48 -11 -55 -4 -4 -7 -15 -7
-25 0 -13 -6 -16 -22 -11 -22 5 -22 4 -5 -15 26 -29 21 -35 -15 -17 l-31 16
21 -27 c29 -37 28 -51 -3 -31 -38 25 -39 19 -6 -21 17 -20 29 -39 26 -41 -2
-3 -26 11 -52 30 -66 47 -73 51 -73 39 0 -6 4 -11 9 -11 13 0 101 -80 101 -92
0 -14 -14 -9 -41 15 -15 12 -41 33 -58 46 -22 17 -31 31 -27 44 2 10 -2 21
-10 24 -9 3 -12 13 -8 32 10 39 14 43 30 30 8 -6 14 -7 14 -3 0 14 -33 31 -57
29 -13 -1 -19 3 -16 11 2 7 11 10 19 7 9 -3 14 2 14 16 0 11 -6 19 -12 17 -7
-1 -10 -1 -5 1 4 3 7 16 7 29 0 14 4 23 9 20 5 -3 7 -15 4 -26 -3 -11 0 -20 6
-20 7 0 9 -9 5 -25 -9 -37 4 -30 21 12 15 35 12 60 -4 34 -6 -8 -11 -9 -15 -3
-3 6 -2 13 4 17 14 9 13 26 -2 23 -6 -2 -14 5 -16 16 -3 12 0 16 8 11 7 -4 10
-1 9 6 -1 8 3 27 10 43 6 16 10 35 7 42 -3 8 -1 16 4 19 4 3 13 -7 19 -22 l11
-28 -5 30 c-3 17 -8 39 -11 50 -4 17 -3 18 6 5 9 -12 10 -9 6 15 l-6 30 17
-30 c10 -19 18 -25 21 -16 2 7 -1 17 -7 21 -13 7 -11 31 2 41 4 3 3 19 -3 35
-9 27 -9 28 5 10 8 -11 15 -23 15 -28 0 -4 5 -8 10 -8 6 0 10 7 10 15 0 8 -4
15 -9 15 -6 0 -9 8 -9 18 1 9 -2 27 -6 40 -9 26 0 28 26 5 10 -9 21 -13 25 -9
5 4 0 12 -10 17 -9 6 -15 14 -12 20 4 5 1 9 -6 9 -8 0 -6 7 5 19 10 11 25 17
34 14 11 -3 13 -2 6 4 -7 4 -14 22 -15 38 -4 27 -2 30 21 26 23 -3 24 -2 9 15
-8 11 -16 29 -17 42 -1 17 5 22 24 22 13 0 24 5 24 10 0 6 -9 10 -21 10 -11 0
-18 4 -15 9 4 5 0 12 -6 14 -8 3 -6 6 5 6 14 1 16 6 11 29 -7 24 -6 26 10 13
9 -8 20 -11 23 -7 4 4 2 10 -4 14 -12 7 -16 25 -14 56 1 15 4 16 16 6 12 -10
15 -10 15 3 0 8 -4 17 -10 19 -5 2 -12 21 -16 42 -3 22 -10 50 -15 63 -13 36
-10 51 6 29 24 -32 26 -12 6 54 -11 35 -18 67 -15 71 3 5 -1 21 -9 36 -8 15
-17 47 -21 69 -7 50 -25 87 -57 117 -13 12 -29 36 -34 52 -7 20 -17 29 -28 27
-9 -2 -17 3 -17 11 0 8 -10 22 -21 33 -22 19 -22 19 -14 -6 7 -22 4 -21 -24
10 -17 19 -31 39 -31 43 0 5 -5 5 -10 2 -6 -3 -13 1 -16 10 -4 9 -13 14 -22
10 -8 -3 -21 3 -28 12 -11 15 -15 15 -23 4 -6 -9 -11 -10 -15 -2 -4 6 -16 11
-27 11 -11 0 -23 8 -26 17 -6 15 -7 15 -13 -1 -6 -18 -7 -18 -24 -1 -14 14
-20 15 -26 5 -6 -9 -10 -8 -19 6 -10 18 -10 17 -11 -5 0 -23 -1 -24 -20 -6
-11 10 -20 21 -20 26 0 21 -257 286 -331 340 -110 81 -207 156 -285 219 -45
37 -115 90 -155 116 -39 27 -78 58 -86 71 -8 12 -41 35 -73 51 -49 25 -65 28
-99 22 -41 -7 -85 -36 -76 -50 2 -4 25 -13 50 -20 39 -11 45 -16 45 -39 -1
-55 -39 -118 -199 -336 -53 -71 -112 -153 -131 -182 -19 -28 -38 -49 -42 -47
-4 3 -18 0 -30 -6 -21 -10 -21 -10 -5 3 23 19 22 26 -3 20 -11 -3 -20 -9 -20
-14 0 -15 -22 -10 -36 9 -13 16 -14 16 -8 -1 8 -23 -16 -19 -34 6 -7 9 -18 14
-24 11 -19 -12 55 117 122 212 139 200 246 342 302 402 33 35 71 89 86 120 15
32 37 61 50 67 37 16 19 30 -44 33 -87 3 -101 8 -109 39 -13 56 -54 104 -111
129 -30 13 -57 32 -60 42 -3 9 -10 24 -15 32 -19 32 -29 64 -49 157 -11 53
-24 101 -29 107 -5 6 -12 27 -16 46 -3 19 -8 44 -10 55 -2 11 -4 30 -4 43 -1
13 -5 20 -11 17 -5 -3 -10 -2 -10 4 0 5 4 12 10 16 6 4 5 16 -2 33 -14 37 -25
1002 -11 1011 7 4 13 184 16 506 3 275 11 541 16 590 6 50 11 125 13 167 2 42
5 75 7 72 13 -12 31 24 31 62 0 24 5 44 10 44 6 0 10 18 10 40 0 29 4 40 15
40 11 0 15 -11 15 -40 l0 -40 40 0 40 0 0 40 c0 29 4 40 15 40 11 0 15 -11 15
-40 0 -29 -4 -40 -15 -40 -9 0 -15 -9 -15 -25 0 -22 4 -25 40 -25 22 0 40 5
40 10 0 6 18 10 40 10 22 0 40 -4 40 -10 0 -6 33 -10 80 -10 79 0 80 0 80 25
0 23 -4 25 -40 25 -29 0 -40 4 -40 15 0 13 20 15 120 15 100 0 120 -2 120 -15
0 -11 11 -15 40 -15 l40 0 0 40 0 40 80 0 80 0 0 40 0 40 120 0 c104 0 120 -2
120 -16 0 -14 2 -15 17 -3 15 13 15 14 0 17 -23 5 -24 82 -2 82 11 0 15 11 15
40 l0 40 80 0 80 0 0 40 c0 22 5 40 10 40 6 0 10 18 10 40 0 29 4 40 15 40 11
0 15 -11 15 -40 0 -29 4 -40 15 -40 11 0 15 11 15 40 0 22 5 40 10 40 6 0 10
18 10 40 0 29 4 40 15 40 9 0 15 -9 15 -25 0 -22 4 -25 40 -25 39 0 40 1 40
34 0 25 8 43 31 65 17 17 35 31 40 31 5 0 9 7 9 15 0 11 11 15 40 15 22 0 40
5 40 10 0 6 18 10 40 10 29 0 40 4 40 15 0 8 7 15 15 15 11 0 15 11 15 40 0
36 3 40 25 40 23 0 25 4 25 40 l0 40 40 0 c36 0 40 3 40 25 0 23 4 25 40 25
l40 0 0 55 0 55 40 0 c36 0 40 3 40 25 0 23 4 25 40 25 l40 0 0 40 0 40 44 0
c26 0 48 6 56 15 10 12 10 15 -4 15 -13 0 -16 11 -16 55 l0 55 48 0 c35 0 54
5 65 18 10 10 17 22 17 25 0 4 -1594 7 -3542 7 l-3543 -1 -75 -61z m4624
-1223 c3 -220 9 -479 11 -575 3 -96 10 -420 15 -720 13 -744 21 -1052 26
-1070 10 -36 -23 22 -36 62 -45 139 -234 362 -373 441 -21 11 -39 30 -42 42
-5 27 -26 1065 -29 1472 -2 243 0 328 10 350 l13 28 -5 -35 c-3 -27 -2 -31 5
-15 5 11 10 14 10 8 1 -8 16 -13 41 -13 24 0 40 -5 40 -12 0 -6 3 -8 7 -5 4 4
8 29 9 55 5 87 15 152 25 152 5 0 9 25 9 55 0 40 4 57 15 61 8 4 15 16 16 28
1 18 3 16 14 -9 18 -39 18 -55 0 -55 -8 0 -15 -7 -15 -15 0 -11 11 -15 40 -15
36 0 40 -2 40 -25 0 -23 4 -25 45 -25 l45 0 2 -67 1 -68 6 77 c10 118 21 105
23 -28 l1 -119 7 115 c4 63 8 164 9 224 2 217 9 93 15 -299z m-874 100 c0 -11
-11 -15 -40 -15 -29 0 -40 -4 -40 -15 0 -13 20 -15 124 -15 l124 0 7 -112 c3
-62 8 -144 10 -181 3 -77 9 -89 30 -61 13 17 15 14 16 -41 1 -33 4 -49 6 -35
7 35 32 60 60 60 17 0 23 6 24 23 1 21 1 21 8 -3 7 -22 8 -21 15 18 5 24 10
41 12 39 3 -2 8 -40 13 -83 l8 -79 3 110 c1 61 2 178 2 260 l0 150 8 -130 c5
-71 13 -299 19 -505 7 -206 16 -512 21 -680 16 -520 16 -613 3 -617 -7 -3 -13
-1 -13 4 0 4 -15 14 -32 22 -18 7 -60 26 -93 41 -33 16 -80 34 -105 40 -25 6
-59 16 -76 21 -67 20 -268 3 -367 -32 -34 -12 -66 -25 -70 -29 -4 -4 18 -10
50 -13 32 -3 80 -13 107 -22 55 -19 103 -8 92 20 -4 11 2 15 20 15 14 0 22 4
19 10 -3 6 2 10 12 11 10 0 34 2 53 4 43 5 110 -14 117 -33 5 -11 7 -11 14 -1
6 10 17 3 43 -24 19 -20 40 -37 46 -37 7 0 10 -7 6 -15 -3 -8 -2 -15 3 -15 4
0 12 -15 17 -32 13 -43 -5 -115 -24 -96 -9 9 -12 9 -12 0 0 -6 8 -16 18 -22
16 -11 16 -11 0 -6 -42 13 -24 -22 52 -100 81 -82 82 -85 65 -104 -10 -11 -13
-20 -7 -20 13 0 106 -113 173 -209 34 -49 52 -67 74 -71 24 -4 35 -20 78 -102
49 -93 52 -96 91 -103 112 -17 232 -148 250 -270 6 -44 0 -33 -30 50 -10 28
-33 65 -51 83 -36 35 -48 40 -40 18 5 -12 0 -12 -31 1 -20 8 -42 19 -48 24
-24 20 -113 -22 -165 -78 -80 -85 -105 -140 -119 -261 -9 -79 -22 -94 -74 -85
-27 4 -43 14 -55 34 -10 16 -21 26 -24 22 -7 -7 -11 41 -8 92 1 23 0 27 -8 15
-6 -8 -12 -46 -13 -85 -1 -60 -2 -63 -5 -20 -3 27 -9 52 -15 56 -19 12 10 149
47 225 36 73 75 121 75 92 0 -9 11 -23 25 -32 22 -14 25 -15 25 -1 0 8 -6 15
-12 16 -10 0 -10 2 -1 6 9 3 5 16 -12 44 -14 21 -25 43 -25 48 0 14 -24 30
-51 35 -24 4 -28 24 -6 38 13 8 -38 88 -116 181 -86 103 -81 95 -66 115 13 15
12 16 -3 3 -11 -8 -25 -10 -35 -6 -10 5 -24 7 -32 6 -8 -2 -12 3 -8 13 3 8 -2
20 -11 28 -16 12 -16 11 -2 -7 14 -20 14 -20 -7 -1 -13 10 -20 23 -17 28 3 4
2 7 -3 6 -4 -2 -10 2 -11 7 -7 20 -24 35 -34 29 -11 -7 -60 35 -53 46 3 4 -3
14 -13 21 -15 13 -16 12 -3 -3 7 -10 9 -18 4 -18 -16 0 -32 22 -26 39 4 12 3
13 -5 3 -8 -11 -17 -8 -50 16 -23 16 -38 33 -34 37 4 5 1 5 -7 0 -7 -4 -16 -4
-20 1 -3 5 -37 25 -76 44 -38 18 -92 50 -120 69 l-50 36 -120 0 c-107 0 -124
-2 -155 -22 -19 -13 -32 -23 -29 -23 3 0 -19 -25 -48 -56 -49 -51 -66 -84 -44
-84 5 0 34 30 66 68 32 37 63 70 71 75 15 9 29 -9 14 -18 -5 -3 -10 -12 -10
-19 0 -16 -29 -50 -127 -153 -40 -41 -73 -79 -73 -84 0 -5 -4 -9 -10 -9 -16 0
-12 22 10 55 23 35 26 53 5 31 -8 -8 -15 -19 -15 -24 0 -5 -9 -17 -19 -26 -33
-30 -128 -236 -147 -319 -10 -43 -21 -72 -25 -65 -3 7 -12 146 -18 308 -7 162
-16 390 -21 505 -12 252 -40 956 -65 1613 -3 77 -1 122 5 122 6 0 10 -17 11
-37 0 -21 3 -32 6 -25 7 17 23 15 23 -2 0 -9 11 -3 29 15 23 23 39 29 70 29
37 0 41 2 41 25 0 23 4 25 40 25 22 0 40 5 40 10 0 6 18 10 40 10 29 0 40 4
40 15 0 11 11 15 40 15 29 0 40 4 40 15 0 12 16 15 80 15 47 0 80 4 80 10 0 6
33 10 80 10 64 0 80 3 80 15 0 13 20 15 120 15 100 0 120 3 120 15 0 12 16 15
80 15 64 0 80 -3 80 -15z m-504 -2710 c39 -27 98 -98 88 -108 -8 -8 6 -48 14
-43 4 2 29 -36 56 -86 27 -50 44 -88 37 -84 -6 4 -11 3 -11 -2 0 -5 -10 -12
-22 -15 l-23 -6 23 19 c31 26 28 33 -15 25 -33 -5 -39 -3 -48 16 -5 13 -16 25
-24 27 -8 3 -11 0 -7 -7 4 -6 2 -11 -4 -11 -6 0 -13 7 -17 16 -3 9 -17 27 -30
40 -22 22 -24 52 -2 39 5 -4 9 1 9 10 0 9 4 13 10 10 6 -3 7 1 4 9 -4 10 -1
16 7 17 8 1 1 4 -16 8 -23 5 -31 13 -35 36 -4 25 -9 30 -31 27 -19 -2 -28 3
-37 24 -10 21 -15 24 -27 14 -20 -16 -19 0 1 28 20 29 54 28 100 -3z m1399
-246 c4 -6 14 -8 22 -5 8 3 12 2 9 -3 -3 -4 5 -13 19 -19 15 -7 35 -36 56 -79
17 -37 36 -69 41 -71 13 -5 10 -61 -7 -127 -21 -80 -36 -116 -46 -109 -5 3 -6
-1 -3 -9 8 -22 -67 -99 -101 -104 -143 -20 -193 -14 -240 33 -15 15 -16 14 -9
-12 6 -27 2 -24 -46 26 -30 30 -53 59 -52 63 1 4 -3 7 -10 6 -24 -3 -91 1 -87
5 2 2 24 6 49 9 79 9 80 10 80 91 0 137 39 209 146 272 42 25 68 32 161 43 6
0 15 -4 18 -10z m-1894 -236 c6 -43 21 -105 34 -138 12 -33 27 -76 32 -95 6
-23 18 -39 36 -48 15 -7 27 -17 27 -22 0 -4 9 -6 20 -3 14 4 20 -1 24 -18 2
-13 14 -73 27 -134 16 -80 24 -163 28 -305 4 -107 6 -197 4 -199 -1 -2 -5 21
-9 50 -4 30 -9 48 -11 42 -7 -19 -23 -16 -24 5 -1 11 -4 9 -9 -8 l-8 -25 -2
25 c-2 24 -3 23 -10 -5 l-8 -30 -1 29 c-1 21 -5 27 -16 22 -8 -3 -15 0 -16 7
0 7 -4 3 -9 -8 l-9 -20 -1 20 c-2 17 -3 16 -10 -5 l-8 -25 -2 25 -2 25 -8 -25
-8 -25 -1 25 c-2 23 -3 24 -15 7 -8 -10 -17 -14 -20 -9 -11 18 -65 20 -69 3
-3 -9 -6 -6 -7 9 l-2 25 -8 -25 c-8 -25 -8 -25 -9 4 -1 16 -4 26 -8 23 -3 -4
-12 -2 -20 5 -11 9 -12 7 -8 -8 4 -14 2 -13 -6 3 -9 17 -24 23 -73 28 -61 6
-124 2 -148 -10 -7 -4 0 4 16 17 53 42 142 67 238 68 l88 0 -5 58 c-3 31 -9
190 -15 352 -6 162 -13 324 -15 360 -8 90 12 56 26 -47z m-1100 -455 c2 -85 7
-169 13 -225 6 -55 -1 -64 -34 -43 -13 8 -12 10 3 10 32 0 7 20 -26 21 -18 1
-24 3 -15 6 15 4 17 15 15 66 -1 47 -6 62 -17 62 -18 0 -30 14 -30 35 1 12 3
11 11 -3 15 -25 29 -11 29 30 0 30 -3 35 -20 30 -16 -4 -20 0 -19 16 0 12 3
17 5 11 3 -7 13 -10 24 -7 13 4 20 -1 23 -19 3 -16 5 -13 6 12 l1 36 -79 -1
c-43 0 -77 3 -74 8 2 4 44 7 94 7 l89 0 1 -52z m743 17 c-35 -27 -44 -74 -15
-76 14 -1 14 -2 -1 -6 -14 -3 -16 -11 -11 -36 3 -18 11 -35 17 -39 7 -5 3 -8
-9 -8 -17 0 -17 -2 -5 -10 11 -7 12 -10 2 -10 -18 0 11 -30 30 -31 7 0 -3 -5
-22 -11 l-35 -11 30 -13 c26 -11 27 -13 12 -20 -23 -9 -127 2 -140 15 -5 5
-11 38 -14 73 -2 34 -8 85 -13 111 -17 83 -3 93 130 96 l75 1 -31 -25z m-3069
-89 c81 -22 127 -47 114 -63 -9 -10 -7 -13 9 -13 34 0 44 -67 18 -118 -7 -15
-17 -45 -21 -67 -5 -22 -9 -42 -10 -45 -1 -3 -5 -18 -9 -35 -37 -148 -47 -194
-56 -257 -10 -69 -45 -194 -60 -211 -3 -4 -15 2 -26 14 -14 16 -15 23 -6 26
15 6 16 39 1 49 -14 8 -8 38 25 134 14 41 26 82 26 92 0 10 5 18 11 18 6 0 9
6 6 14 -3 7 1 26 9 41 16 32 18 61 4 70 -5 3 -10 21 -10 40 0 19 5 37 10 40
21 13 4 205 -19 213 -6 2 -8 8 -5 14 4 6 -1 8 -15 3 -12 -4 -21 -2 -21 4 0 6
10 11 23 12 13 0 16 2 7 6 -8 2 -24 8 -35 13 -11 5 -27 11 -35 13 -35 12 17 6
65 -7z m1650 -16 c53 -11 99 -20 102 -20 2 0 2 -4 -1 -8 -3 -5 16 -20 42 -34
26 -15 46 -31 44 -37 -1 -6 4 -11 12 -11 8 0 -8 -22 -36 -50 -28 -27 -52 -50
-54 -50 -2 0 -4 9 -4 20 0 11 -7 20 -15 20 -8 0 -15 7 -15 16 0 18 -9 27 -65
69 -29 22 -52 30 -85 31 -68 3 -114 15 -98 26 9 7 8 8 -6 4 -10 -4 -41 -3 -69
0 l-50 7 34 18 c46 25 142 24 264 -1z m2173 -866 c3 -57 -1 -134 -11 -201 -9
-59 -19 -139 -22 -178 -9 -99 -14 -146 -20 -175 -3 -14 -14 -101 -25 -195 -10
-93 -24 -171 -30 -173 -5 -2 -8 -8 -4 -13 3 -5 -2 -9 -10 -9 -19 0 -20 -11 -3
-29 10 -11 8 -11 -10 -2 -26 13 -28 9 -12 -22 11 -21 11 -21 -7 -6 -40 33 -60
37 -28 4 21 -21 10 -32 -13 -14 -12 10 -10 4 6 -18 12 -18 18 -33 12 -33 -5 0
-16 8 -23 18 -17 24 -45 41 -33 21 4 -8 15 -22 23 -31 21 -25 3 -22 -25 4 -28
27 -31 10 -3 -20 12 -12 17 -22 12 -22 -5 0 -15 7 -22 15 -21 25 -23 9 -4 -22
l18 -28 -25 21 c-13 12 -30 20 -37 18 -7 -1 -8 0 -2 3 12 6 13 33 1 33 -5 0
-12 -6 -14 -12 -4 -10 -8 -9 -16 2 -15 21 -13 30 4 24 8 -4 15 -1 15 5 0 6 -6
11 -12 12 -10 0 -10 2 -1 6 9 3 10 10 3 24 -12 22 -1 25 20 7 7 -7 4 0 -8 16
-26 34 -29 54 -5 35 15 -13 15 -12 5 8 -18 32 -15 38 8 18 11 -10 20 -14 20
-8 0 14 -35 44 -43 36 -4 -3 -7 -1 -7 5 0 16 23 15 38 0 16 -16 16 4 0 21 -11
11 -9 13 10 8 20 -5 22 -3 10 11 -7 9 -17 20 -23 24 -6 5 -6 8 2 8 6 0 15 -4
18 -10 3 -5 11 -10 17 -10 15 0 -12 30 -37 41 -15 7 -13 8 13 5 37 -6 44 11 7
20 -30 7 -32 20 -5 34 15 8 26 7 43 -1 20 -11 21 -11 8 4 -7 10 -21 17 -31 17
-9 0 -17 7 -17 15 0 8 4 15 9 15 5 0 6 9 3 20 -4 13 -1 22 7 25 8 3 15 15 15
27 1 12 8 25 15 30 11 8 10 11 -1 15 -8 3 -9 8 -3 12 5 3 13 25 16 47 6 31 3
45 -8 57 -11 10 -16 32 -15 64 l1 48 13 -45 c7 -25 13 -36 14 -23 1 16 6 20
22 16 20 -6 21 -3 15 63 -3 45 -2 60 3 44 5 -14 9 -39 10 -57 2 -48 17 -48 26
0 4 23 7 45 6 50 -1 6 14 11 30 9 4 -1 5 9 2 21 -4 18 -3 20 7 7 10 -13 11
-12 6 3 -3 10 -6 24 -6 30 0 7 -4 6 -10 -3 -11 -17 -13 -9 -3 15 5 15 8 14 20
-6 14 -23 14 -20 -2 30 -4 15 -3 21 3 17 5 -3 10 5 10 19 0 14 -5 25 -10 25
-5 0 -7 -3 -4 -8 2 -4 -3 -16 -11 -27 -15 -20 -15 -20 -8 3 3 12 2 22 -4 22
-5 0 -12 -12 -14 -27 -4 -28 -4 -28 -6 2 -1 26 4 33 30 42 18 7 36 10 42 6 6
-3 7 -1 3 5 -3 6 -1 14 5 18 8 4 7 9 -2 16 -10 7 -8 8 8 5 13 -3 26 -1 29 4 3
5 0 8 -7 7 -6 -2 -14 3 -16 10 -3 7 3 12 14 13 15 0 14 2 -4 9 -25 10 -26 11
-17 34 3 9 10 13 15 10 10 -6 6 68 -6 101 -3 11 1 7 11 -10 11 -20 19 -60 22
-121z m-160 -2085 c34 -11 60 -24 57 -29 -3 -4 2 -11 11 -14 8 -3 12 -2 9 4
-7 12 5 13 21 2 13 -8 38 -81 31 -88 -8 -8 -91 19 -100 32 -9 15 -114 47 -127
39 -11 -7 -13 19 -4 53 8 27 24 28 102 1z m-3882 -70 c27 -17 51 -33 53 -34 9
-9 -54 -74 -87 -89 -34 -16 -42 -16 -97 -1 -32 8 -70 15 -82 15 -13 0 -23 4
-23 9 0 9 109 61 128 61 6 0 23 5 38 10 21 8 24 14 16 22 -14 14 -16 38 -4 38
4 0 30 -14 58 -31z m7690 -117 c-3 -5 71 -82 164 -172 93 -89 167 -167 163
-173 -4 -6 0 -8 11 -4 11 4 16 3 14 -4 -7 -20 -20 -11 -99 66 -43 43 -79 74
-79 69 0 -4 20 -33 44 -63 47 -61 81 -120 72 -128 -3 -3 -17 4 -31 15 -14 11
-39 23 -54 27 -18 4 -31 14 -34 27 -3 11 -10 17 -16 14 -12 -8 -51 23 -51 41
0 7 6 13 13 14 6 0 -3 5 -21 10 -18 5 -30 14 -27 19 3 5 -4 20 -15 32 -15 16
-20 32 -17 53 3 23 -2 35 -22 52 -14 13 -22 23 -17 23 5 0 -3 9 -17 20 -14 11
-33 20 -42 20 -9 0 -13 5 -10 10 3 6 17 10 31 10 13 0 23 3 23 8 -3 15 1 22
12 22 5 0 8 -4 5 -8z m-5019 -24 c18 -7 33 -16 33 -20 0 -4 8 -8 18 -8 9 0 24
-5 32 -11 22 -15 -27 -2 -67 19 -26 13 -36 14 -55 4 -22 -12 -22 -12 -1 -8 15
3 20 0 16 -10 -3 -8 -1 -14 5 -14 6 0 12 6 15 13 4 10 7 10 18 0 11 -11 10
-13 -6 -13 -17 0 -18 -2 -5 -11 12 -9 11 -9 -5 -4 -37 14 -73 17 -79 7 -3 -5
8 -12 24 -16 37 -7 38 -22 5 -48 -40 -32 -32 -59 29 -95 11 -7 29 -16 39 -19
15 -5 18 -15 15 -49 -2 -34 0 -41 12 -37 10 4 9 -2 -5 -18 l-20 -23 22 12 c28
14 46 14 37 0 -5 -8 4 -10 32 -6 21 3 31 3 21 1 -22 -7 -12 -24 14 -24 22 0
23 -4 8 -31 -10 -19 -10 -19 -39 1 -15 11 -36 20 -47 19 -10 0 0 -9 25 -20 37
-17 58 -49 33 -49 -5 0 -12 -8 -16 -17 -3 -10 -18 -33 -34 -51 -23 -27 -40
-34 -108 -48 -63 -13 -84 -21 -92 -38 -8 -14 -10 -15 -6 -3 4 14 0 18 -18 15
-18 -2 -21 -8 -19 -30 2 -16 -1 -28 -8 -28 -6 0 -9 -4 -6 -8 3 -5 -1 -9 -9 -9
-8 0 -15 4 -15 9 0 4 4 8 10 8 5 0 7 8 4 18 -5 14 -4 15 5 2 9 -13 11 -13 11
2 0 9 -4 20 -10 23 -12 7 -131 -15 -126 -24 2 -3 -12 -6 -32 -6 -21 -1 -46 -5
-57 -9 -11 -5 -28 -8 -38 -7 -16 2 -18 -3 -15 -35 2 -24 -2 -38 -10 -40 -7 -1
-9 0 -4 2 13 7 1 64 -14 64 -28 0 -164 -33 -164 -40 0 -4 -12 -5 -26 -2 -15 3
-25 1 -21 -4 3 -5 -17 -10 -44 -10 -27 -1 -55 -7 -62 -13 -8 -6 -16 -9 -18 -6
-3 2 -61 -7 -129 -20 -152 -31 -157 -31 -97 0 27 14 68 39 92 55 24 17 55 30
70 30 14 0 28 6 31 13 3 8 16 12 32 9 32 -4 145 23 150 36 1 5 13 7 25 5 12
-3 52 3 87 11 36 9 83 18 104 21 22 3 63 11 90 19 28 8 84 18 124 22 40 3 75
11 78 15 3 5 10 9 15 9 6 0 7 -4 4 -10 -3 -5 -1 -10 4 -10 6 0 11 5 11 10 0 6
3 9 8 8 26 -5 114 17 128 33 16 18 16 19 1 19 -10 0 -17 5 -17 10 0 6 -5 10
-10 10 -6 0 -116 52 -246 115 -129 63 -239 115 -244 115 -14 0 -1 28 17 34 9
4 26 0 37 -8 37 -24 227 -108 232 -103 6 5 -182 98 -225 112 -24 7 -27 18 -7
34 10 9 36 0 112 -38 182 -89 214 -102 214 -83 0 5 -30 22 -67 38 -36 16 -105
47 -152 70 l-85 41 62 42 c56 38 122 59 182 59 8 0 44 7 80 15 36 9 67 16 69
16 3 1 20 -4 38 -11z m-1649 -301 l4 -133 -38 -16 c-50 -21 -101 -36 -139 -40
l-30 -3 -7 85 c-3 47 -6 111 -7 142 l-1 57 43 10 c23 6 67 19 97 29 30 10 59
15 64 10 5 -4 11 -67 14 -141z m-260 41 c-3 -7 -20 -15 -38 -18 -50 -8 -51
-30 -1 -30 32 0 41 -4 42 -17 0 -10 2 -26 4 -36 2 -10 -6 -27 -18 -37 l-21
-20 22 0 c29 0 28 -18 0 -24 -67 -14 -108 -14 -108 0 0 8 10 14 25 14 25 0 25
1 9 25 -13 21 -14 25 -2 25 8 0 19 -5 24 -10 8 -8 18 -5 34 8 23 18 23 18 -40
14 -50 -4 -62 -2 -58 9 3 8 12 13 21 11 13 -2 15 6 14 40 -2 37 1 42 23 49 41
12 72 10 68 -3z m623 -251 c108 -63 210 -122 228 -131 17 -9 31 -21 31 -26 0
-10 -149 -84 -191 -95 -18 -4 -30 0 -43 14 -20 22 -19 23 38 36 29 6 28 7 -35
45 -35 22 -71 40 -79 40 -15 1 -35 25 -138 170 -30 41 -59 82 -66 90 -6 8 3 6
24 -7 19 -11 123 -72 231 -136z m2553 -22 c13 -14 32 -25 42 -25 11 0 26 -5
34 -10 12 -8 9 -10 -10 -7 -14 2 -19 2 -12 0 6 -3 12 -8 12 -13 0 -5 -6 -11
-12 -13 -7 -3 16 -6 52 -7 58 -2 61 -3 30 -10 -34 -8 -393 -53 -675 -85 -578
-65 -588 -67 -611 -120 -7 -19 -11 -47 -8 -63 7 -36 1 -38 -131 -38 l-99 1 -2
32 c-1 19 2 30 8 27 12 -8 39 27 33 44 -2 6 2 12 9 12 19 0 49 37 43 54 -12
31 34 47 294 105 515 114 576 123 692 103 67 -12 90 -13 99 -4 9 9 8 12 -6 12
-9 0 -15 4 -11 9 3 6 18 6 38 0 17 -5 53 -10 80 -10 26 -1 47 -6 47 -10 0 -5
-7 -9 -17 -9 -9 0 -14 -2 -11 -5 3 -3 19 -2 37 1 21 4 28 10 20 14 -11 8 -6
40 6 40 3 0 16 -11 29 -25z m776 -83 c47 -45 64 -82 39 -82 -6 0 -8 -9 -4 -21
6 -17 3 -20 -12 -17 -10 3 -34 -3 -53 -12 -19 -10 -70 -25 -114 -35 -87 -19
-92 -37 -6 -25 76 12 132 12 125 1 -3 -5 -1 -12 4 -15 5 -3 11 2 14 13 3 15
19 19 88 24 190 15 433 2 481 -25 20 -11 11 -14 -82 -19 -201 -13 -685 -31
-734 -27 -48 3 -49 4 -86 65 -52 86 -51 89 34 85 39 -3 79 -8 89 -13 11 -7 17
-6 17 2 0 12 68 7 91 -7 10 -7 6 -10 -16 -15 -24 -5 -23 -6 9 -4 21 2 46 10
54 19 13 13 12 14 -12 12 -14 -2 -26 1 -26 5 0 13 54 11 67 -2 9 -9 10 -6 6
10 -6 22 -39 51 -58 51 -5 0 -3 -5 5 -10 12 -8 10 -10 -8 -10 -21 0 -23 3 -17
33 7 32 31 67 47 67 4 0 31 -22 58 -48z m2910 -51 c39 -7 42 -9 23 -17 -12 -5
-22 -12 -22 -16 -1 -5 -1 -35 -1 -68 l0 -60 -40 0 -40 0 0 60 c0 58 -1 60 -23
55 -15 -4 -28 -1 -36 8 -10 12 -8 18 11 31 24 17 57 19 128 7z m228 -33 c58
-10 77 -21 50 -30 -6 -2 -14 -26 -17 -54 -6 -48 -7 -49 -43 -52 l-38 -3 0 55
c0 31 -4 56 -10 56 -13 0 -49 -39 -66 -72 -16 -31 -44 -38 -44 -10 0 17 17 97
25 120 5 13 10 13 143 -10z m-5088 -307 c0 -5 13 -11 28 -14 19 -4 28 -12 28
-26 0 -11 -4 -17 -8 -15 -4 3 -8 -2 -8 -10 0 -9 5 -16 11 -16 6 0 8 -7 5 -16
-11 -27 5 -64 35 -79 33 -18 82 -19 216 -5 54 5 195 19 313 30 118 12 231 24
250 27 19 3 33 3 30 0 -7 -7 -194 -47 -509 -107 -145 -28 -274 -58 -286 -66
-29 -19 -35 -41 -25 -96 5 -24 5 -44 -1 -46 -5 -2 -2 -19 6 -38 l14 -33 -37
23 c-41 25 -180 125 -203 144 -8 7 -26 23 -41 36 -15 13 -54 41 -88 62 -33 20
-60 39 -60 41 0 2 18 31 40 64 29 44 40 71 40 99 0 36 2 39 33 43 65 8 217 7
217 -2z m5011 -1603 c-12 -19 -2 -25 16 -7 7 7 12 6 17 -6 4 -10 2 -14 -5 -9
-12 7 -31 -15 -23 -28 3 -4 16 -5 30 -2 31 8 32 -16 3 -57 -16 -22 -28 -29
-54 -29 -26 0 -33 4 -29 15 9 22 -41 38 -113 36 -60 -2 -63 -1 -79 30 -16 32
-9 48 22 49 6 0 24 11 40 25 30 25 39 25 39 -3 0 -10 6 -15 15 -13 8 2 25 3
37 3 17 -1 21 2 16 16 -6 14 -4 15 8 5 8 -7 25 -11 37 -10 17 1 21 6 17 22 -6
19 -5 19 6 1 9 -15 9 -24 0 -38z"/>
<path d="M6124 11523 c-3 -13 -27 -36 -52 -53 -56 -37 -102 -34 -163 10 -23
16 -48 30 -56 30 -31 0 3 -108 43 -135 30 -20 114 -36 114 -23 0 6 7 8 15 4 9
-3 33 11 60 34 26 22 44 40 41 40 -3 0 1 18 10 39 12 30 13 44 5 58 -10 17
-11 17 -17 -4z"/>
<path d="M8925 11011 c-38 -28 -106 -77 -150 -109 -99 -72 -240 -205 -362
-342 l-93 -105 43 -22 c23 -12 50 -19 61 -16 12 3 16 1 12 -6 -6 -10 42 -41
64 -41 5 0 19 9 31 21 12 12 29 19 40 16 10 -3 24 2 31 11 11 13 10 15 -4 9
-25 -9 -22 -1 8 31 14 15 30 37 35 50 9 23 54 46 70 36 8 -5 13 9 10 28 0 4
13 18 30 32 17 14 27 26 23 26 -4 0 1 9 11 20 10 11 24 20 32 20 7 0 32 17 56
39 23 21 55 41 72 45 45 11 55 24 55 72 0 43 -1 44 -27 38 -16 -4 -39 -15 -53
-24 -26 -17 -60 -32 -60 -26 0 2 16 13 35 25 20 11 41 25 48 31 6 5 22 18 35
28 21 15 23 24 20 91 l-3 74 -70 -52z"/>
<path d="M0 7071 l0 -288 38 -6 c21 -4 38 -2 40 3 2 6 17 10 33 10 16 0 46 7
66 15 20 9 43 13 50 11 7 -3 13 1 13 9 0 11 13 15 53 15 37 0 48 3 37 10 -11
7 -8 10 16 10 21 0 31 -5 31 -15 0 -10 -10 -15 -29 -15 -15 0 -28 -4 -28 -10
0 -13 73 -13 86 0 7 7 28 7 65 0 48 -9 121 -8 206 2 29 4 41 18 15 18 -12 0
-22 4 -22 9 0 5 44 7 101 5 99 -3 100 -3 97 19 -2 15 -10 23 -28 24 -14 1 -82
5 -152 9 -71 4 -128 10 -128 14 0 3 -15 4 -34 2 -54 -6 -62 2 -25 27 33 22 33
22 7 18 -36 -6 -26 10 15 22 27 9 24 9 -18 4 -64 -7 -88 -19 -62 -29 15 -5 16
-9 5 -15 -10 -7 -11 -9 0 -9 7 0 10 -4 7 -10 -3 -5 -13 -10 -21 -10 -11 0 -12
4 -5 19 9 16 6 20 -17 24 -34 6 -45 -2 -13 -10 16 -4 19 -8 10 -13 -16 -11
-39 13 -39 39 0 18 7 21 48 22 46 2 46 2 12 9 -81 17 121 9 250 -10 179 -26
197 -26 202 3 7 36 -1 47 -35 47 -18 0 -87 9 -154 20 -67 11 -155 24 -195 28
-45 5 -72 12 -71 19 3 16 -100 29 -105 14 -5 -16 -57 52 -104 137 -22 39 -46
72 -53 72 -7 0 -15 5 -17 11 -2 7 -17 7 -47 0 -27 -6 -53 -6 -68 0 -13 5 -26
9 -29 9 -2 0 -4 -130 -4 -289z"/>
<path d="M0 6100 c0 -110 2 -200 5 -200 6 0 77 37 134 69 18 11 44 30 57 42
26 24 32 59 12 59 -9 0 -8 3 2 10 12 7 7 12 -20 24 -34 14 -35 14 -49 -15 -7
-16 -16 -27 -19 -24 -3 3 0 11 6 17 17 17 15 69 -4 98 -24 35 -86 100 -106
111 -17 9 -18 -3 -18 -191z"/>
<path d="M4490 5963 c-156 -30 -206 -39 -300 -54 -41 -6 -115 -22 -165 -34
-49 -13 -173 -40 -275 -60 -102 -20 -195 -39 -207 -42 -19 -4 -20 -8 -12 -36
11 -40 11 -56 0 -39 -6 11 -15 9 -42 -8 l-34 -21 43 4 c36 4 42 2 42 -14 0
-23 -11 -26 -180 -43 -134 -14 -134 -14 -55 -16 l80 -2 -59 -19 c-33 -11 -62
-22 -65 -26 -21 -22 377 43 729 121 63 14 210 46 325 71 349 76 503 114 520
125 6 4 31 11 57 14 47 7 67 19 49 30 -5 3 -57 -3 -117 -14 -59 -11 -109 -20
-111 -20 -2 0 -3 9 -3 21 0 12 -7 36 -16 55 -20 41 -27 42 -204 7z"/>
<path d="M0 5618 l0 -114 35 -13 c36 -13 39 -18 53 -101 16 -95 -43 -125 -75
-38 -9 27 -12 -16 -12 -239 -1 -239 1 -273 14 -273 62 0 245 95 245 126 0 8 4
14 9 14 5 0 13 15 16 33 4 17 16 49 26 69 35 69 22 268 -28 423 -39 121 -102
174 -260 220 -23 6 -23 6 -23 -107z"/>
<path d="M6020 5400 c-218 -25 -343 -54 -630 -147 -223 -72 -375 -199 -431
-361 -33 -95 -25 -221 18 -273 7 -8 13 -19 13 -22 0 -25 142 -129 230 -168 14
-6 33 -15 43 -20 25 -13 182 -67 247 -85 30 -8 79 -22 108 -30 l52 -16 -44
-49 c-75 -84 -136 -190 -136 -240 0 -8 -30 -29 -68 -47 -37 -18 -80 -41 -97
-52 -39 -24 -42 -24 -51 2 -10 32 -68 120 -97 147 -20 18 -33 22 -56 18 -25
-5 -33 -1 -55 28 -14 18 -31 57 -38 86 -11 45 -19 57 -66 94 -30 24 -64 47
-76 53 -86 41 -125 55 -209 77 -182 46 -306 60 -537 60 -121 0 -269 -6 -339
-14 l-124 -14 -96 100 c-107 111 -313 329 -529 559 -176 188 -195 198 -352
197 -100 0 -116 -3 -350 -73 -135 -39 -335 -96 -445 -126 -110 -30 -584 -159
-1052 -286 l-853 -232 0 -234 c0 -184 3 -232 12 -225 7 4 31 8 53 9 37 1 38 1
13 -8 -16 -5 -28 -14 -28 -20 0 -6 -11 -8 -25 -4 l-25 6 0 -335 c0 -329 0
-335 19 -325 11 5 30 10 42 10 21 0 22 -1 4 -20 -12 -14 -25 -18 -41 -14 l-24
6 0 -662 c0 -627 1 -662 17 -655 36 14 180 68 251 93 l73 26 23 -25 c12 -13
35 -53 51 -89 29 -67 51 -118 90 -205 13 -27 32 -70 43 -95 11 -24 18 -50 15
-56 -2 -6 -23 -20 -46 -30 -97 -43 -249 -158 -383 -287 l-135 -132 3 -99 3
-100 60 75 c81 101 227 251 303 311 68 55 220 148 240 148 12 0 58 -91 117
-235 18 -44 42 -102 54 -128 11 -27 21 -53 21 -58 0 -4 -33 -18 -72 -29 -252
-73 -488 -158 -651 -233 l-77 -36 0 -90 c0 -57 4 -91 11 -91 5 0 45 18 87 39
138 70 364 160 582 230 194 62 183 62 208 -1 43 -110 46 -128 25 -143 -10 -8
-21 -15 -25 -15 -5 0 -8 -9 -8 -19 0 -23 23 -33 55 -25 32 8 49 -17 135 -211
12 -27 35 -78 51 -112 40 -87 39 -100 -13 -108 -81 -12 -239 -67 -331 -116
-188 -100 -303 -151 -382 -170 -44 -11 -89 -23 -100 -28 -11 -5 -46 -17 -79
-27 l-59 -19 137 -3 c159 -3 162 -2 334 102 146 89 268 131 455 156 48 7 98 9
111 6 26 -6 48 -50 70 -137 8 -31 25 -73 38 -93 l23 -36 86 0 86 0 6 81 c3 45
9 85 14 90 15 15 128 -65 169 -120 36 -48 41 -51 82 -51 40 0 43 2 37 21 -15
45 -76 136 -124 184 -53 53 -186 138 -234 150 -23 6 -35 21 -59 74 -16 36 -48
104 -70 150 -75 157 -117 262 -118 294 0 4 11 7 24 7 13 0 26 7 30 15 3 9 21
25 41 36 19 12 35 25 35 30 0 8 -58 6 -143 -6 -24 -3 -32 4 -62 48 -19 29 -35
57 -35 64 0 7 -5 13 -11 13 -8 0 -8 5 1 15 7 8 27 15 46 15 18 0 45 5 60 10
14 6 54 15 88 20 33 5 79 14 101 20 22 5 53 12 68 15 25 5 28 9 23 33 -3 15
-7 53 -8 85 l-1 59 -31 -7 c-17 -4 -58 -13 -91 -20 -69 -14 -140 -32 -205 -50
-25 -7 -64 -16 -87 -20 l-42 -7 -25 49 c-45 88 -83 167 -112 233 -16 36 -32
67 -36 68 -4 2 -8 12 -8 22 0 10 -8 26 -17 35 -22 22 -7 48 33 56 68 15 204 9
266 -12 56 -18 138 -65 184 -103 154 -127 159 -130 162 -106 2 13 1 43 -3 66
-6 40 -13 49 -88 108 -193 150 -334 190 -546 154 -61 -10 -71 -10 -86 5 -9 9
-14 17 -10 17 7 0 -32 76 -51 100 -7 8 -17 35 -24 60 -11 43 -68 179 -80 190
-3 3 -6 10 -7 15 -1 6 -4 22 -8 36 -8 31 2 39 70 63 28 10 64 24 82 32 17 8
36 14 43 14 6 0 30 8 53 19 23 10 58 22 77 26 19 4 40 10 45 14 6 4 30 14 55
21 25 7 50 17 55 20 8 6 73 30 95 35 3 1 19 7 35 14 57 24 139 51 154 51 8 0
29 11 47 25 35 27 64 31 96 14 16 -9 19 -8 16 3 -5 15 140 68 255 94 38 8 80
19 94 25 13 5 35 9 48 9 13 0 25 5 27 10 2 6 14 12 28 14 14 2 32 6 40 9 8 3
43 14 77 23 34 10 59 22 56 27 -3 5 0 8 7 5 7 -2 23 -39 37 -82 22 -70 24 -86
15 -145 -9 -58 -8 -68 8 -86 37 -42 81 -167 102 -289 3 -17 15 -18 143 -21
193 -3 239 -19 360 -126 50 -44 108 -98 131 -120 38 -38 97 -68 136 -69 55 -1
286 -124 355 -189 12 -12 25 -21 29 -21 4 0 32 -24 63 -53 31 -29 85 -70 119
-90 35 -21 98 -72 141 -115 80 -81 268 -234 417 -340 49 -35 110 -80 135 -100
25 -20 93 -74 150 -119 151 -119 166 -134 178 -178 18 -66 14 -80 -29 -110
-39 -27 -40 -30 -38 -79 l3 -51 -120 -29 c-143 -34 -175 -46 -281 -107 -44
-26 -92 -50 -105 -54 -13 -4 -28 -11 -34 -15 -5 -4 -23 -10 -40 -13 -16 -4
-24 -4 -17 -1 21 10 13 22 -18 29 -18 4 -27 11 -24 17 5 7 -3 9 -22 4 -16 -4
-49 -11 -74 -16 -46 -10 -62 -14 -183 -50 -38 -11 -112 -27 -165 -36 -53 -9
-140 -28 -192 -44 -86 -26 -152 -43 -220 -56 -29 -6 -194 -46 -197 -48 -1 -1
297 -2 661 -4 646 -2 664 -2 687 17 l24 20 -32 11 c-18 7 -33 16 -33 21 0 5
-7 9 -16 9 -24 0 1 21 71 60 132 72 256 147 382 231 160 106 121 75 343 271
261 231 411 355 508 421 46 32 64 38 106 38 100 0 343 18 431 33 50 8 149 24
220 36 72 11 141 24 155 29 14 5 34 9 45 9 11 1 31 3 45 6 14 3 42 8 63 11 64
10 41 22 -43 22 -44 -1 -80 -4 -80 -8 0 -4 -38 -8 -85 -8 -48 1 -92 -4 -99
-10 -8 -7 -36 -9 -75 -5 -46 5 -61 4 -61 -6 0 -9 -3 -10 -13 -1 -16 12 -81 12
-117 -1 -40 -15 -312 -11 -321 4 -12 19 35 40 106 50 98 13 265 37 335 48 36
6 81 13 100 16 19 2 49 8 65 13 17 5 57 14 90 21 213 42 359 89 637 203 15 6
30 8 34 4 4 -3 -6 -32 -21 -64 -15 -32 -34 -76 -43 -98 -8 -22 -20 -46 -25
-53 -15 -19 -57 -124 -57 -142 0 -9 -4 -20 -10 -26 -9 -9 -20 -51 -41 -159
-14 -74 -14 -351 -1 -415 15 -69 65 -172 134 -275 62 -92 131 -168 241 -266
l78 -69 125 0 126 0 -44 36 c-40 33 -312 299 -369 361 -44 48 -79 107 -104
177 -13 36 -22 66 -20 66 2 0 -2 17 -9 39 -27 74 2 339 41 379 7 7 10 19 7 26
-3 7 1 20 9 27 17 18 47 78 47 96 0 7 5 13 10 13 6 0 10 7 10 16 0 10 6 14 15
10 8 -3 20 3 27 13 7 10 27 25 44 34 33 17 114 111 114 131 0 6 12 17 28 23
15 7 34 17 42 22 8 5 42 19 75 31 33 12 74 28 90 35 17 8 64 17 105 20 41 4
91 15 110 24 19 10 41 16 47 14 7 -3 20 3 29 11 8 9 24 16 33 16 10 0 24 7 31
15 7 8 19 15 27 15 8 0 29 6 46 14 54 24 99 34 182 41 44 3 116 11 160 17 44
5 105 10 135 10 33 -1 64 5 79 15 12 8 32 13 42 10 10 -3 22 -1 25 5 3 5 13 7
21 4 28 -11 162 19 346 76 l67 21 0 54 c0 54 -8 64 -30 38 -7 -8 -19 -15 -26
-15 -8 0 -31 -9 -51 -20 -21 -11 -45 -20 -53 -20 -9 0 -33 -9 -55 -20 -22 -11
-49 -20 -62 -20 -12 0 -24 -4 -28 -9 -3 -5 -20 -13 -37 -17 -18 -3 -39 -10
-48 -14 -80 -40 -131 -45 -199 -21 -45 16 -83 46 -69 55 1 1 15 10 31 19 15
10 27 24 27 32 0 8 5 15 11 15 5 0 8 4 5 8 -3 4 55 13 127 20 133 12 208 25
370 63 l87 21 0 78 0 78 -92 -24 c-51 -13 -103 -24 -117 -24 -24 0 -24 1 10
25 45 32 79 67 79 81 0 6 9 19 21 30 12 10 28 32 36 49 9 16 19 32 23 35 4 3
15 19 24 37 14 28 16 91 16 563 l0 532 -22 31 c-13 18 -38 48 -58 68 -68 69
-303 253 -367 288 -35 18 -158 131 -155 142 1 5 -1 8 -5 7 -9 -2 -29 8 -208
101 -66 35 -125 68 -131 74 -6 7 -14 31 -17 55 -4 36 -3 42 11 38 10 -2 44 -7
77 -11 69 -7 181 -31 243 -53 42 -15 42 -15 26 -39 -8 -14 -13 -27 -11 -30 9
-9 76 20 70 30 -11 18 87 -2 176 -34 48 -18 147 -61 221 -98 74 -36 138 -67
143 -69 4 -2 7 25 7 60 0 61 -1 64 -33 82 -63 37 -170 76 -191 70 -16 -4 -18
-3 -6 5 13 9 13 11 0 15 -70 25 -116 40 -181 61 l-76 25 10 45 c17 75 -2 73
-45 -4 -15 -27 -19 -29 -45 -21 -41 14 -176 53 -188 55 -5 1 -16 3 -23 3 -7 1
-11 5 -9 10 3 4 -38 8 -91 8 -54 1 -110 7 -125 13 -36 14 -33 43 5 47 16 1 37
5 48 9 19 6 19 8 3 38 -9 18 -19 50 -22 72 -4 25 -11 40 -20 40 -8 0 -19 9
-25 20 -6 11 -15 23 -21 27 -5 4 -6 8 -1 8 4 0 1 11 -8 25 -20 30 -20 39 -1
31 8 -3 15 -1 15 4 0 6 -11 10 -24 10 -33 0 -43 17 -14 23 20 4 20 4 -4 6 -27
1 -62 37 -52 53 3 4 -7 13 -21 18 -14 5 -24 14 -21 19 3 5 -1 11 -9 15 -8 3
-12 12 -9 21 5 11 2 14 -10 9 -9 -3 -16 -2 -16 3 0 17 -49 63 -82 78 l-33 14
40 1 c42 1 38 5 -32 28 -40 12 -45 8 -38 -37 4 -24 2 -30 -3 -17 -5 11 -17 23
-28 27 -17 7 -17 8 -1 8 9 1 17 7 17 15 0 17 -37 28 -44 12 -3 -7 -7 -8 -13
-1 -4 6 -22 17 -40 25 -28 14 -30 16 -15 30 14 13 15 12 9 -3 -4 -12 -1 -17
11 -18 9 0 27 -2 40 -3 12 -2 22 3 22 10 0 26 -93 63 -106 42 -4 -6 -10 -5
-15 3 -8 12 -10 12 -18 1 -6 -11 -10 -9 -14 7 -3 13 -11 19 -19 16 -8 -3 -50
12 -93 35 -75 38 -119 53 -85 29 13 -9 13 -10 0 -6 -8 2 -15 10 -15 17 0 16
-165 86 -221 94 l-39 6 33 -12 c46 -16 40 -27 -10 -17 -56 10 -156 36 -168 44
-5 3 -28 8 -52 11 -24 4 -45 10 -48 15 -18 28 -74 33 -355 35 -159 0 -319 -2
-355 -6z m635 -130 c22 -5 81 -16 130 -26 237 -43 477 -141 601 -243 17 -15
47 -39 67 -55 20 -15 37 -34 37 -41 0 -7 13 -18 29 -25 25 -10 43 -31 42 -50
0 -3 12 -11 26 -19 18 -9 22 -15 13 -21 -7 -4 -9 -13 -6 -19 4 -6 11 -9 15 -6
5 2 17 -2 27 -10 19 -14 19 -14 0 -15 -23 0 -12 -15 12 -15 13 0 16 -8 14 -36
-2 -21 2 -40 9 -44 8 -6 10 1 7 23 -4 26 -2 29 9 20 7 -6 11 -19 8 -28 -4 -13
-1 -17 11 -16 9 0 19 -5 22 -13 3 -8 0 -11 -6 -7 -6 3 -13 2 -17 -4 -3 -5 2
-10 13 -10 10 0 26 -8 34 -17 14 -16 78 -145 78 -157 0 -5 -341 3 -358 9 -10
4 -10 11 2 34 8 15 12 31 9 35 -4 3 1 6 10 6 10 0 17 -4 17 -9 0 -6 9 -9 19
-8 11 0 17 5 15 9 -3 5 -10 6 -15 3 -5 -4 -9 1 -9 9 0 9 -8 16 -17 16 -15 0
-15 2 -4 9 11 7 4 12 -27 22 -49 14 -72 2 -72 -39 0 -23 -1 -24 -12 -9 -12 15
-40 18 -52 6 -2 -2 -1 -23 3 -46 11 -57 0 -59 -131 -33 -109 23 -157 32 -303
57 -111 18 -509 29 -545 14 -18 -7 9 -9 103 -6 76 3 127 1 127 -4 0 -6 -8 -9
-17 -9 -10 0 -76 -2 -148 -6 -91 -5 -125 -4 -115 3 12 8 8 11 -17 11 -23 0
-33 -5 -33 -15 0 -17 -27 -20 -32 -4 -6 17 -68 1 -68 -17 0 -16 -17 -19 -22
-3 -5 15 -58 0 -58 -17 0 -8 -4 -14 -10 -14 -5 0 -10 4 -10 9 0 6 -12 6 -30 0
-16 -6 -29 -14 -29 -17 3 -19 -2 -26 -10 -14 -6 11 -26 6 -95 -22 -47 -20 -99
-36 -114 -36 -53 0 -353 92 -418 129 -11 6 -66 32 -124 59 -58 27 -121 64
-141 83 -43 42 -64 110 -55 175 15 112 83 185 250 267 64 31 119 57 124 57 5
0 35 11 68 24 82 33 250 73 369 86 55 6 120 16 145 21 121 26 549 32 655 9z
m-362 -1221 c53 -14 60 -26 20 -35 -16 -3 -71 -17 -123 -30 -52 -14 -124 -32
-160 -41 -36 -8 -73 -19 -83 -25 -46 -23 -26 18 34 70 28 25 61 39 131 57 51
14 102 23 113 20 11 -2 41 -9 68 -16z m652 -89 c4 -6 11 -8 16 -4 14 9 66 -15
73 -33 5 -12 16 -14 49 -9 29 4 38 3 27 -4 -12 -8 -9 -10 12 -10 15 0 63 -12
105 -27 79 -27 150 -63 124 -63 -8 0 -22 7 -32 16 -10 9 -26 14 -36 12 -12 -3
3 -14 47 -35 36 -17 75 -34 87 -38 13 -3 30 -13 39 -22 11 -11 18 -13 26 -5 7
7 20 7 42 0 42 -15 56 -27 49 -44 -6 -17 9 -18 26 -1 10 10 11 9 6 -5 -4 -11
2 -22 20 -35 14 -10 57 -42 96 -70 38 -29 73 -53 77 -53 4 0 32 -22 62 -49 44
-39 57 -46 63 -35 5 9 6 23 2 32 -4 11 -3 13 3 7 26 -26 -27 -292 -97 -489
-21 -59 -158 -342 -207 -426 -55 -95 -51 -92 -97 -85 -23 3 -62 11 -86 17 -34
9 -46 9 -49 0 -5 -15 -32 -15 -52 -1 -12 9 -10 10 9 5 18 -4 21 -2 12 7 -7 7
-32 12 -57 11 -25 -1 -40 2 -33 6 7 5 0 10 -19 15 -18 3 -37 3 -43 -1 -8 -5
-9 -3 -4 6 6 9 -1 11 -26 6 -19 -3 -28 -3 -20 0 16 8 -140 66 -181 68 -14 0
-25 3 -23 7 2 3 -42 27 -98 53 -56 27 -113 54 -127 60 -55 26 -227 120 -252
137 -29 21 -43 24 -33 9 3 -5 1 -10 -5 -10 -7 0 -14 9 -17 20 -5 18 -15 24
-35 21 -5 0 -8 3 -8 9 0 5 -21 21 -47 37 -50 28 -54 30 -173 120 -79 60 -300
272 -300 289 0 6 -11 20 -25 32 -16 14 -25 32 -25 52 0 16 -4 30 -10 30 -5 0
-10 7 -10 15 0 8 5 15 10 15 6 0 10 7 10 15 0 8 4 15 10 15 5 0 30 21 55 46
25 25 45 43 45 39 0 -4 18 8 40 25 22 17 40 29 40 25 0 -4 7 -1 16 6 9 8 38
25 65 39 26 14 88 46 137 72 87 44 265 98 327 98 14 0 39 7 54 14 20 11 59 15
139 14 61 -1 115 1 118 5 4 4 20 7 35 7 30 0 47 15 27 23 -8 4 -7 6 4 6 9 1
20 -4 23 -9z m545 -32 c25 -11 52 -24 60 -28 8 -4 30 -5 48 -2 17 2 32 0 32
-5 0 -6 -12 -8 -26 -5 -19 3 -25 1 -20 -7 4 -6 16 -11 26 -11 10 0 25 -7 34
-15 8 -8 22 -12 30 -9 9 3 23 0 32 -7 9 -7 33 -15 53 -16 59 -5 61 -6 61 -25
0 -11 4 -17 8 -14 5 3 14 -4 22 -14 8 -10 17 -17 22 -14 15 10 50 -7 44 -22
-3 -8 -1 -14 4 -14 5 0 11 10 13 23 4 18 4 17 6 -6 0 -16 5 -26 10 -23 5 3 11
-12 13 -34 2 -22 2 -40 0 -40 -3 0 -25 15 -51 33 -38 28 -119 78 -266 163 -27
16 -127 66 -195 98 -30 14 -44 23 -30 20 14 -3 45 -15 70 -26z m-2880 -23
c163 -24 173 -27 235 -55 33 -15 77 -42 99 -59 21 -17 51 -31 65 -31 21 0 28
-7 38 -37 10 -32 9 -41 -5 -59 -100 -128 -172 -246 -172 -284 0 -33 -19 -32
-62 4 -23 20 -49 36 -59 36 -10 0 -28 19 -44 45 -34 59 -111 105 -175 105 -58
0 -149 -43 -214 -101 -48 -43 -184 -200 -204 -236 -9 -16 -17 -11 -66 42 -52
57 -70 85 -44 69 6 -4 8 -3 4 4 -3 5 -2 12 4 14 5 1 -15 21 -46 43 -48 35 -52
40 -32 43 13 2 47 14 76 28 29 13 58 24 66 24 16 0 77 30 92 45 28 27 25 52
-7 73 l-32 20 31 16 c68 35 70 97 7 189 -43 63 -44 66 -22 70 56 11 379 6 467
-8z m3616 -325 c8 0 14 -3 14 -7 0 -9 48 -33 66 -33 7 0 14 -4 16 -8 2 -5 28
-22 58 -40 30 -17 66 -45 80 -62 14 -16 30 -30 37 -30 7 0 30 -17 52 -37 21
-21 48 -45 59 -53 16 -12 24 -36 33 -102 11 -77 11 -96 -5 -160 -10 -40 -28
-93 -41 -118 -13 -25 -30 -58 -38 -75 -8 -16 -21 -36 -30 -44 -10 -7 -17 -19
-17 -25 0 -13 -135 -156 -148 -156 -5 0 -17 -9 -27 -20 -10 -11 -23 -20 -28
-20 -6 0 -3 8 6 18 22 24 22 24 8 51 -10 17 -10 22 -1 16 9 -5 10 -2 6 13 -4
11 -2 23 4 27 5 3 10 14 9 23 0 13 -2 14 -6 2 -9 -21 -53 -67 -53 -54 0 7 6
17 14 23 8 6 24 35 35 64 12 29 26 61 31 72 5 11 14 45 20 75 6 30 14 67 17
83 7 34 20 35 35 2 6 -14 24 -30 40 -37 15 -7 28 -16 28 -20 0 -5 4 -8 9 -8
20 0 22 43 6 87 -19 50 -87 157 -108 170 -7 4 -21 19 -29 32 -9 13 -57 65
-106 116 -49 50 -93 102 -97 113 -3 12 -11 22 -16 22 -22 0 -56 42 -51 65 4
26 32 43 32 21 0 -29 31 -26 48 4 9 16 19 25 20 20 2 -6 10 -10 18 -10z
m-3090 -25 c3 -8 -4 -31 -16 -50 -12 -20 -20 -39 -16 -42 3 -4 6 0 6 7 0 7 3
10 7 7 3 -4 12 -2 19 4 15 12 23 1 34 -46 7 -32 5 -35 -42 -65 -27 -18 -53
-41 -57 -52 -4 -11 -3 -51 1 -90 9 -78 -3 -142 -29 -152 -9 -4 -18 -4 -21 -1
-3 3 0 5 6 5 7 0 12 5 12 10 0 6 -5 10 -11 10 -7 0 -18 8 -25 18 -10 13 -12
14 -11 2 2 -8 7 -21 11 -29 6 -10 5 -12 -3 -7 -29 18 -43 69 -37 132 10 98 70
251 128 323 26 34 36 37 44 16z m564 -220 c5 3 29 -21 53 -53 49 -63 173 -183
252 -243 28 -21 91 -72 140 -113 50 -42 118 -97 152 -123 34 -26 60 -49 58
-51 -13 -14 -359 207 -480 307 -134 110 -178 170 -171 235 2 14 -1 23 -5 20
-5 -3 -9 -3 -9 0 0 2 -2 10 -3 18 -2 7 -2 10 0 5 3 -4 9 -5 13 -2z m-224 -57
c3 -12 15 -31 25 -42 47 -51 89 -109 84 -114 -3 -3 -12 4 -21 16 -8 12 -21 22
-27 22 -8 0 -9 -3 -1 -8 6 -4 14 -19 18 -34 3 -15 17 -39 31 -54 14 -15 25
-39 25 -53 0 -20 3 -22 9 -12 6 9 6 22 0 34 -12 22 -4 51 12 41 8 -5 8 -9 -1
-14 -9 -6 -9 -12 0 -30 6 -12 9 -33 6 -46 -5 -20 -3 -24 17 -24 15 0 32 -12
47 -32 l23 -33 -32 29 c-22 22 -34 27 -42 19 -13 -13 2 -44 37 -80 27 -27 30
-41 10 -49 -12 -5 -12 -8 2 -23 12 -13 21 -15 30 -8 11 8 11 12 0 18 -9 6 -6
9 10 9 13 0 22 -6 22 -15 0 -8 18 -32 40 -54 22 -21 40 -44 40 -50 0 -6 6 -11
14 -11 8 0 16 -6 19 -13 4 -12 68 -58 157 -112 19 -12 61 -39 93 -59 31 -20
66 -39 77 -41 30 -6 41 -15 34 -27 -4 -7 -2 -8 4 -4 10 6 54 -15 72 -34 7 -7
36 -25 90 -55 25 -14 52 -30 60 -35 8 -5 31 -16 50 -25 19 -8 46 -22 60 -30
33 -19 145 -69 193 -86 20 -7 37 -17 37 -21 0 -4 -55 -8 -122 -8 -187 0 -461
41 -323 49 26 1 45 -2 45 -9 0 -5 5 -10 11 -10 8 0 8 5 -1 15 -7 8 -29 15 -50
15 -25 0 -40 5 -44 15 -5 13 -2 14 17 5 20 -9 20 -9 3 2 -76 53 -178 118 -182
118 -21 0 -224 191 -271 255 -26 35 -125 168 -130 174 -1 2 -15 -1 -29 -8 -25
-11 -26 -15 -22 -64 3 -29 3 -46 1 -39 -3 6 -9 12 -15 12 -6 0 -8 -7 -4 -15 3
-8 1 -15 -5 -15 -6 0 -9 -4 -7 -9 8 -22 156 -174 188 -194 19 -12 41 -27 49
-35 7 -7 33 -22 56 -33 23 -11 51 -28 62 -38 11 -10 51 -38 89 -62 38 -24 71
-46 74 -49 3 -3 16 -11 30 -18 74 -36 -169 31 -280 78 -41 17 -91 37 -110 44
-33 12 -169 78 -215 104 -83 46 -181 107 -198 123 -12 10 -24 19 -28 19 -13 0
-114 90 -141 127 -21 28 -28 48 -28 84 0 46 21 82 35 59 3 -6 24 -19 45 -30
l39 -20 22 70 c13 39 29 70 36 70 6 0 15 17 19 37 4 21 18 58 31 82 28 53 28
62 4 83 -16 14 -19 28 -16 90 4 117 3 112 20 98 8 -6 17 -21 21 -32z m2643
-71 c16 4 21 1 21 -13 0 -14 2 -16 9 -6 5 9 10 0 15 -28 5 -35 9 -40 21 -30
12 10 15 7 20 -17 11 -49 15 -55 30 -49 24 9 19 -64 -10 -149 -35 -106 -96
-202 -184 -288 -166 -163 -185 -177 -250 -177 -56 0 -61 8 -32 48 25 37 103
210 163 362 86 219 95 243 118 322 l23 78 18 -29 c13 -22 23 -28 38 -24z m677
-176 c11 9 14 7 14 -12 1 -23 1 -23 15 -5 44 58 -15 -111 -62 -177 -37 -52
-99 -118 -90 -95 2 7 18 45 35 83 32 75 62 170 63 201 0 11 3 14 6 6 4 -10 8
-10 19 -1z m-2346 -483 c69 -30 132 -58 140 -61 8 -3 51 -21 95 -39 73 -31
184 -68 291 -97 23 -6 59 -23 80 -37 21 -15 52 -31 67 -37 43 -15 143 -77 126
-78 -86 -8 -112 -7 -99 1 13 9 13 10 0 10 -8 0 -26 3 -40 5 -22 5 -23 4 -5 -5
15 -7 9 -8 -25 -4 -25 3 -49 10 -55 15 -5 5 -19 9 -31 9 -12 0 -60 16 -106 36
-46 20 -110 47 -142 60 -33 13 -66 30 -75 38 -9 7 -33 19 -53 25 -21 7 -41 17
-44 23 -4 6 -30 21 -58 34 -28 14 -76 40 -106 59 -30 19 -75 46 -100 60 -51
29 -133 92 -139 107 -1 5 32 -8 75 -30 44 -22 135 -64 204 -94z m-1045 -461
c11 -3 45 -15 75 -27 104 -40 262 -85 334 -96 48 -7 48 -7 43 -38 -3 -18 -44
-110 -92 -206 -74 -150 -110 -209 -182 -298 -9 -11 -56 -18 -190 -27 -103 -8
-184 -9 -193 -4 -11 6 -7 9 15 9 26 1 27 3 10 10 -18 8 -18 9 5 10 14 2 18 4
9 7 -13 3 -14 13 -8 56 4 29 3 56 -2 61 -5 6 -9 20 -9 32 0 31 -10 55 -21 48
-5 -3 -9 4 -9 14 0 11 -7 25 -15 32 -8 7 -15 19 -15 27 0 7 -7 16 -15 19 -17
7 -20 24 -4 24 19 0 49 44 36 52 -9 5 -6 17 8 40 11 18 42 73 70 121 65 114
103 161 118 149 7 -5 21 -12 32 -15z m1773 -141 c17 -1 32 -4 32 -8 0 -13 -23
-58 -30 -58 -4 0 -12 -11 -18 -25 -6 -14 -36 -37 -69 -55 -32 -16 -65 -34 -73
-39 -40 -23 -162 -81 -171 -81 -6 0 -34 -11 -62 -24 -63 -28 -232 -79 -322
-96 -22 -4 -94 -20 -160 -34 -226 -49 -465 -96 -494 -96 l-29 0 32 83 c18 45
49 114 69 152 40 79 67 164 67 210 0 28 3 31 33 33 17 1 37 9 43 17 9 12 21
14 50 8 83 -15 651 -5 919 17 55 4 111 5 125 2 14 -3 40 -6 58 -6z m212 -207
c-12 -8 -12 -12 -2 -16 10 -4 10 -8 1 -19 -9 -11 -8 -14 7 -15 11 0 14 -3 7
-6 -7 -2 -13 -12 -13 -21 -1 -30 -38 -62 -89 -78 -28 -8 -63 -26 -77 -39 -15
-14 -30 -22 -35 -20 -4 3 -10 -4 -14 -15 -3 -11 -10 -20 -14 -20 -9 0 43 108
84 174 25 43 37 51 105 76 46 17 65 17 40 -1z m-2180 -645 c0 -2 -145 -130
-211 -185 -100 -86 -135 -118 -201 -183 -64 -63 -122 -106 -143 -106 -6 0 -12
17 -13 38 -2 32 -14 48 -81 115 -43 42 -73 77 -65 77 8 0 14 5 14 10 0 6 -5
10 -12 10 -21 0 14 26 59 43 26 10 55 14 78 10 31 -5 37 -3 42 16 6 24 14 26
31 9 9 -9 12 -8 12 5 0 18 39 32 69 24 21 -5 166 75 155 86 -9 8 27 16 121 25
68 6 145 10 145 6z"/>
<path d="M8102 4599 l3 -44 101 -3 c94 -2 102 -1 107 17 6 24 0 31 -25 31 -11
0 -16 4 -12 11 3 6 17 9 31 6 14 -3 21 -1 16 4 -5 5 -57 12 -117 15 l-107 6 3
-43z"/>
<path d="M402 664 c-13 -9 -37 -17 -55 -18 -39 -4 -120 -31 -158 -53 -15 -9
-63 -30 -106 -47 -74 -29 -78 -33 -81 -64 -3 -31 -2 -33 20 -27 28 8 67 24 88
36 8 5 22 12 30 15 47 19 92 43 142 76 15 10 33 15 41 13 7 -3 22 3 32 15 10
11 31 20 48 20 29 0 87 28 87 42 0 14 -65 8 -88 -8z"/>
</g>
</svg>
