<?xml version="1.0" standalone="no"?>
<!DOCTYPE svg PUBLIC "-//W3C//DTD SVG 20010904//EN"
 "http://www.w3.org/TR/2001/REC-SVG-20010904/DTD/svg10.dtd">
<svg version="1.0" xmlns="http://www.w3.org/2000/svg"
 width="1024.000000pt" height="768.000000pt" viewBox="0 0 1024.000000 768.000000"
 preserveAspectRatio="xMidYMid meet">
<metadata>
Created by potrace 1.15, written by Peter Selinger 2001-2017
</metadata>
<g transform="translate(0.000000,768.000000) scale(0.100000,-0.100000)"
fill="#000000" stroke="none">
<path d="M5084 7141 c-10 -2 -23 -7 -29 -11 -5 -4 -30 -11 -55 -15 -78 -13
-166 -44 -186 -66 -10 -11 -50 -39 -88 -61 -67 -40 -137 -102 -186 -168 -57
-77 -120 -197 -131 -249 -6 -31 -14 -60 -17 -65 -3 -5 -25 -66 -48 -134 -37
-108 -44 -138 -45 -216 -2 -96 12 -171 35 -179 7 -3 16 -23 20 -45 3 -22 17
-64 31 -93 16 -34 25 -72 25 -104 1 -27 7 -61 14 -74 12 -22 14 -23 23 -6 9
16 12 14 19 -16 4 -19 8 -38 9 -44 1 -22 17 -55 26 -55 10 0 12 34 10 215 -1
95 3 145 15 185 21 73 32 150 22 156 -4 3 -8 22 -8 43 0 22 -6 44 -15 51 -9 8
-13 21 -9 36 3 13 2 24 -4 24 -5 0 -9 31 -8 74 2 64 6 80 31 116 39 57 92 96
141 103 22 4 53 13 70 21 16 8 61 17 99 20 39 3 111 11 160 16 88 11 147 4
181 -22 6 -5 49 -11 95 -14 55 -4 90 -11 101 -21 20 -18 79 -11 97 11 22 26
135 11 154 -20 5 -10 14 -11 32 -4 21 8 24 6 30 -21 5 -23 11 -28 25 -24 15 5
17 2 13 -14 -3 -12 -9 -19 -13 -16 -5 3 -6 -31 -3 -75 6 -87 -2 -110 -42 -110
-33 0 -65 -33 -72 -74 -5 -31 -3 -36 13 -36 18 -1 18 -1 0 -15 -10 -7 -15 -18
-12 -23 3 -5 -4 -13 -17 -17 -22 -7 -131 -17 -197 -18 -19 0 -41 -6 -48 -14
-19 -19 -50 -16 -55 5 -3 9 -5 2 -6 -15 -1 -22 -6 -33 -16 -33 -8 0 -15 -7
-15 -15 0 -18 -21 -20 -38 -3 -18 18 -15 28 8 28 28 0 25 13 -6 27 l-27 12 6
-54 c3 -31 1 -56 -4 -56 -43 -6 -44 -5 -51 58 -9 83 -14 89 -50 58 -16 -14
-37 -25 -47 -25 -9 0 -34 -9 -56 -20 -22 -11 -46 -20 -55 -20 -8 0 -38 -8 -67
-19 -30 -11 -68 -17 -93 -15 -37 4 -49 -1 -101 -41 -33 -25 -64 -45 -69 -45
-6 0 -10 -4 -10 -10 0 -5 -7 -7 -15 -4 -10 4 -15 0 -15 -16 0 -34 31 -120 44
-120 6 0 4 -5 -4 -11 -12 -8 -12 -12 -2 -16 10 -4 10 -8 0 -21 -14 -16 -15
-16 52 4 14 5 20 2 20 -10 0 -8 11 -18 25 -22 14 -3 41 -15 62 -25 20 -10 39
-16 43 -14 4 2 7 -2 7 -9 0 -8 -6 -12 -14 -9 -7 3 -13 0 -13 -6 0 -7 8 -14 18
-18 29 -10 51 -34 45 -50 -5 -13 1 -14 36 -8 58 10 93 29 133 73 18 20 45 45
60 54 15 10 29 31 33 50 20 90 59 115 101 65 36 -43 54 -88 54 -137 0 -23 5
-60 11 -84 9 -35 17 -45 45 -56 37 -15 38 -17 24 -54 -11 -30 -5 -52 16 -60 9
-3 12 -1 9 4 -8 13 1 13 28 -2 49 -28 51 -64 5 -76 -26 -7 -39 -4 -63 12 -16
12 -32 22 -34 24 -3 1 1 8 7 14 19 19 14 28 -13 26 -14 -1 -25 -8 -25 -15 0
-7 -6 -10 -14 -7 -8 3 -16 -4 -20 -20 -7 -27 -80 -86 -107 -86 -10 0 -19 -4
-21 -8 -1 -5 -31 -6 -65 -2 -35 3 -63 4 -63 3 0 -2 14 -19 31 -38 18 -19 52
-41 78 -50 36 -12 51 -23 66 -52 17 -31 26 -38 55 -40 56 -4 82 -13 77 -26 -7
-22 -66 -35 -112 -24 -34 8 -56 6 -113 -12 -88 -27 -108 -27 -115 0 -3 12 -10
18 -15 15 -5 -3 -15 1 -22 9 -15 18 -51 20 -68 3 -9 -9 -12 -8 -12 6 0 10 -6
16 -12 14 -18 -6 -22 -46 -8 -64 10 -11 10 -17 0 -29 -10 -12 -10 -18 1 -31
11 -13 10 -17 -5 -26 -13 -7 -15 -13 -5 -24 9 -11 7 -15 -7 -20 -11 -3 -25 -9
-33 -13 -16 -8 -61 9 -61 22 0 5 6 5 13 2 6 -4 4 0 -5 8 -10 8 -18 20 -18 26
0 7 -5 9 -10 6 -8 -5 -7 -11 1 -21 6 -8 8 -14 5 -14 -4 0 -2 -9 4 -21 7 -11
10 -23 7 -25 -2 -3 -22 33 -44 78 -43 88 -77 192 -87 270 -4 28 -16 56 -31 72
-13 15 -29 44 -35 66 -9 34 -16 41 -48 50 -38 10 -70 38 -112 98 -40 59 -96
92 -154 92 -107 0 -163 -82 -150 -221 6 -59 4 -67 -18 -94 -21 -23 -32 -28
-66 -27 -22 1 -53 7 -69 13 -15 7 -71 13 -123 14 -61 2 -110 9 -137 20 -41 16
-43 19 -43 59 0 64 -27 142 -57 165 -68 55 -203 -6 -203 -90 0 -84 52 -223 95
-258 14 -11 59 -30 100 -42 48 -14 83 -31 101 -50 25 -26 26 -30 14 -60 -13
-31 -81 -89 -105 -89 -7 0 -18 -7 -25 -15 -20 -24 5 -47 45 -39 51 9 114 -12
126 -44 6 -16 7 -33 2 -41 -15 -24 -73 -39 -150 -40 -69 -1 -134 -18 -114 -30
5 -4 12 -19 15 -35 5 -25 3 -27 -19 -22 -14 4 -25 1 -27 -6 -4 -10 -11 -10
-33 0 -19 9 -31 10 -39 2 -13 -13 -42 -13 -83 2 -36 13 -71 1 -65 -22 1 -6 -6
-23 -16 -38 -10 -15 -27 -44 -37 -65 -11 -21 -30 -47 -42 -59 -20 -19 -24 -20
-45 -6 -13 9 -36 15 -51 15 -22 1 -27 -4 -28 -26 -1 -14 -1 -29 -1 -32 1 -3
-5 -42 -13 -87 -8 -45 -12 -88 -9 -95 2 -7 25 -23 50 -35 45 -22 64 -51 64
-95 0 -38 44 -187 55 -184 10 4 15 12 64 116 40 84 45 117 27 170 -20 54 -7
88 42 113 18 9 41 23 51 32 26 24 55 20 134 -20 42 -21 80 -34 94 -31 31 6 29
-2 -13 -52 -35 -40 -41 -67 -9 -41 12 10 15 10 15 -5 0 -14 5 -16 27 -10 22 5
25 4 14 -8 -6 -8 -32 -17 -57 -19 -39 -3 -44 -1 -40 14 2 10 0 15 -6 12 -5 -3
-7 -16 -4 -29 4 -17 -1 -25 -22 -36 -15 -7 -39 -27 -54 -44 -15 -16 -27 -27
-28 -22 0 4 -15 -10 -34 -30 -75 -83 -116 -131 -116 -136 0 -3 -13 -21 -30
-39 -16 -18 -30 -36 -30 -40 0 -4 -16 -32 -35 -63 -20 -30 -33 -55 -29 -55 4
0 0 -8 -8 -17 -17 -21 -63 -125 -73 -166 -6 -22 -25 -49 -25 -34 0 8 22 73 35
102 46 104 52 121 44 141 -4 12 -15 24 -24 27 -9 4 -30 37 -46 74 -17 38 -44
95 -60 128 -16 33 -29 65 -29 70 -1 6 -11 23 -24 38 -23 28 -24 29 -54 13 -43
-22 -95 -21 -116 3 -16 18 -20 18 -51 5 -51 -21 -69 -19 -61 9 12 40 17 125 8
131 -8 5 -60 -85 -66 -116 -11 -51 -50 -66 -74 -27 -11 17 -11 38 -1 112 6 51
18 106 25 124 20 44 18 57 -14 80 -25 18 -31 19 -54 7 -17 -9 -31 -29 -40 -56
-11 -33 -23 -48 -53 -63 -36 -19 -40 -26 -62 -105 -13 -47 -27 -113 -31 -148
-5 -36 -15 -69 -25 -79 -16 -16 -19 -16 -52 0 -46 22 -52 22 -71 -8 -22 -34
-10 -63 36 -81 47 -19 56 -42 59 -144 1 -41 7 -82 12 -91 18 -34 10 -76 -21
-109 -29 -31 -33 -32 -88 -27 -42 5 -84 20 -162 61 l-105 54 -3 45 -3 45 -47
5 c-26 2 -57 8 -69 12 -15 5 -27 1 -42 -14 -12 -12 -26 -21 -31 -21 -5 0 -10
-8 -10 -19 0 -10 -7 -24 -15 -31 -19 -16 -19 -30 0 -30 26 0 137 -59 152 -80
8 -11 37 -46 65 -78 27 -31 67 -91 89 -132 43 -85 54 -99 89 -123 30 -21 64
-22 80 -2 17 20 53 19 73 -3 19 -20 23 -62 7 -62 -5 0 -10 -18 -10 -40 0 -22
-4 -40 -10 -40 -5 0 -10 -7 -10 -15 0 -11 12 -15 50 -15 52 0 53 1 64 52 4 15
17 35 31 44 23 15 27 15 51 -1 22 -14 25 -22 19 -51 l-6 -34 68 0 c37 0 149 7
248 15 99 8 183 15 187 15 4 0 15 12 23 28 9 15 13 18 10 7 -4 -11 -13 -45
-21 -75 -25 -94 -21 -88 -62 -83 -20 3 -89 -1 -152 -7 -63 -7 -155 -14 -205
-16 -139 -6 -349 -25 -357 -32 -4 -4 -8 -32 -10 -62 l-3 -55 -40 -1 c-31 0
-39 -4 -37 -17 4 -23 -42 -51 -72 -43 -18 4 -28 0 -40 -19 -19 -29 -60 -42
-81 -25 -8 7 -17 28 -21 49 -8 46 -31 73 -53 62 -25 -12 -102 -30 -162 -36
-30 -4 -60 -8 -67 -10 -7 -3 -35 0 -62 6 -52 11 -90 45 -90 79 0 16 -5 17 -41
9 -22 -5 -44 -7 -50 -4 -13 9 -11 -2 7 -41 18 -37 19 -34 -52 -131 -10 -14
-19 -60 -25 -127 -6 -58 -17 -118 -24 -133 -8 -16 -15 -34 -15 -42 0 -8 -7
-22 -15 -31 -9 -10 -20 -53 -25 -101 -8 -65 -15 -88 -31 -101 -12 -10 -27 -18
-34 -18 -8 0 -35 27 -62 59 -26 33 -58 62 -71 65 -12 4 -93 -3 -180 -13 -86
-11 -248 -30 -360 -41 -111 -11 -225 -25 -253 -30 -29 -6 -53 -10 -55 -10 -2
0 -4 -144 -4 -320 l0 -320 29 0 c17 0 33 -5 36 -10 4 -6 11 -8 16 -5 5 4 17 1
26 -4 14 -8 3 -10 -44 -11 l-63 0 0 -436 0 -437 78 7 c42 4 165 11 272 16 238
11 598 37 700 49 136 18 524 48 710 56 91 4 118 9 127 22 7 9 11 18 9 21 -4 3
-91 -4 -356 -29 -180 -18 -351 -22 -363 -10 -7 7 -13 57 -15 124 -1 61 -6 146
-10 187 -5 41 -4 128 0 193 11 145 32 198 113 282 48 49 55 62 46 76 -8 13 -7
27 3 51 12 27 12 51 4 117 -12 101 -7 121 31 144 71 42 128 7 136 -84 6 -66
22 -147 41 -215 l14 -51 50 -5 c38 -4 61 -14 92 -38 23 -19 82 -51 132 -73
l91 -39 112 7 c64 4 116 12 121 18 6 7 22 50 37 97 38 121 46 138 88 202 39
60 47 107 23 127 -12 10 -17 7 -28 -16 -7 -16 -23 -29 -36 -31 -25 -4 -27 1
-12 29 13 23 -3 59 -26 59 -8 0 -12 4 -9 10 8 13 65 13 65 0 0 -5 4 -10 9 -10
14 0 22 73 8 82 -8 5 -12 31 -11 73 1 41 -3 65 -10 65 -6 0 -19 18 -29 40 -10
24 -32 50 -56 65 -62 42 -90 155 -38 155 36 0 85 -37 107 -80 14 -28 33 -46
56 -56 42 -17 62 -54 47 -86 -8 -18 -5 -30 19 -62 15 -22 31 -57 34 -78 12
-75 27 -67 90 49 83 154 132 254 140 287 l7 28 -42 -7 c-76 -13 -120 45 -70
91 16 15 36 19 90 19 l68 0 12 47 c12 51 24 61 34 28 19 -61 138 -169 252
-230 85 -45 99 -58 86 -78 -7 -9 -26 -39 -42 -67 -17 -27 -46 -68 -65 -90 -20
-22 -40 -45 -46 -52 -5 -7 -10 -17 -10 -23 0 -5 -7 -10 -15 -10 -8 0 -15 -7
-15 -15 0 -11 -11 -14 -49 -11 -47 3 -51 2 -74 -31 -21 -30 -24 -40 -15 -70 5
-19 7 -41 4 -49 -3 -8 -2 -13 3 -10 11 7 1 -77 -10 -84 -4 -3 -9 -41 -12 -85
-5 -89 -12 -125 -33 -172 -8 -17 -14 -36 -14 -42 0 -6 -4 -11 -10 -11 -5 0 -7
-7 -4 -15 4 -8 1 -15 -7 -15 -7 0 -9 -3 -6 -7 4 -3 -3 -17 -15 -30 -25 -27
-50 -88 -49 -120 0 -13 -4 -23 -10 -23 -6 0 -9 -9 -6 -20 3 -13 0 -20 -9 -20
-7 0 -17 -12 -20 -27 -4 -16 -17 -38 -30 -51 -13 -13 -24 -28 -24 -34 0 -5
-18 -32 -40 -58 -22 -26 -40 -52 -40 -56 -1 -5 -9 -27 -20 -49 -11 -22 -19
-50 -20 -61 0 -12 -7 -27 -15 -34 -9 -7 -14 -19 -11 -25 6 -17 -20 -123 -35
-142 -7 -8 -14 -21 -15 -29 -1 -7 -15 -32 -31 -56 -63 -92 -96 -154 -95 -181
0 -20 -6 -30 -21 -37 -12 -4 -29 -16 -37 -27 -21 -25 -50 -104 -50 -133 1 -38
-11 -83 -28 -102 -14 -17 -2 -18 246 -18 l262 0 -11 27 c-6 15 -23 52 -39 83
-17 33 -33 84 -39 130 -6 41 -15 96 -19 121 -8 45 -7 48 36 98 46 53 62 57 62
14 0 -14 4 -42 9 -62 5 -20 15 -70 21 -111 6 -41 17 -101 23 -133 l11 -58 36
5 c19 3 69 8 110 11 41 3 145 12 230 20 85 8 241 21 345 30 105 8 237 20 295
25 130 12 180 13 180 1 0 -12 -35 -16 -644 -66 -296 -25 -541 -47 -544 -50 -3
-3 1 -23 8 -45 l13 -40 2322 0 2323 0 4 25 c3 14 1 48 -5 75 -7 35 -7 54 1 62
13 13 32 2 32 -20 0 -13 -2 -13 -16 4 -15 18 -15 18 -9 -11 4 -16 11 -33 17
-36 7 -4 8 -26 4 -55 -4 -33 -3 -43 3 -29 8 17 10 18 10 3 1 -16 14 -18 122
-18 l121 0 -7 77 c-4 43 -9 82 -12 87 -3 4 -7 64 -9 132 -3 105 -2 124 11 124
8 0 15 4 15 9 0 5 -15 7 -32 5 -18 -1 -54 -3 -80 -3 -41 -1 -48 -4 -48 -21 0
-32 35 -91 74 -128 20 -19 36 -37 36 -42 0 -29 -117 -13 -151 21 -14 14 -30
19 -52 17 l-32 -3 -5 70 c-4 50 -15 90 -38 139 -34 73 -38 106 -22 201 8 46
20 237 20 311 0 6 52 16 116 23 64 7 122 15 129 17 11 5 12 32 6 150 -1 9 -12
9 -38 3 -21 -5 -79 -12 -130 -15 -106 -6 -96 -18 -113 126 -6 52 -16 109 -21
126 -5 17 -9 41 -9 55 0 30 -36 157 -49 172 -5 7 -12 29 -16 49 -6 33 -3 42
24 73 17 20 31 45 31 56 0 11 5 29 10 39 9 17 -1 134 -15 181 -3 9 9 31 28 52
21 21 39 54 46 83 15 60 39 106 51 99 5 -3 23 -47 40 -98 60 -185 102 -294
142 -375 23 -46 44 -100 48 -120 5 -21 11 -52 15 -69 7 -29 5 -33 -14 -33 -26
0 -26 -11 -7 -228 8 -84 11 -162 8 -175 -5 -20 -4 -20 11 -8 20 16 22 3 6 -32
-8 -18 -8 -30 0 -43 10 -18 10 -18 11 2 0 23 26 51 37 41 3 -4 6 -32 5 -64 0
-32 2 -74 5 -93 5 -29 7 -32 13 -15 6 15 8 10 9 -20 2 -128 14 -311 20 -315 4
-3 16 -129 26 -280 10 -151 21 -278 25 -283 3 -4 24 6 45 23 57 45 65 41 65
-35 l0 -65 80 0 c69 0 80 2 80 18 0 9 3 28 7 41 4 15 2 22 -4 18 -7 -4 -8 8
-2 38 5 25 9 80 9 122 0 43 0 86 1 97 0 10 7 29 16 42 8 13 12 24 9 24 -4 0
-2 9 4 20 10 19 12 19 42 4 18 -9 38 -23 45 -30 13 -12 41 -20 103 -26 15 -2
30 -13 37 -29 7 -14 24 -31 37 -39 24 -12 24 -14 8 -27 -16 -12 -16 -14 1 -27
14 -11 19 -35 24 -130 5 -102 8 -116 24 -116 15 0 18 12 22 87 2 49 9 106 15
128 7 25 7 43 1 51 -10 12 -6 100 5 111 3 3 6 -16 7 -43 1 -87 10 -187 22
-259 l12 -70 508 -3 507 -2 1 102 c4 400 6 499 12 505 7 6 11 -96 7 -164 -1
-18 6 -47 14 -64 9 -19 16 -58 16 -93 0 -34 3 -112 7 -173 l6 -113 279 0 278
0 0 33 c1 129 14 406 20 422 18 48 32 -43 37 -247 l6 -208 93 0 94 0 0 316 0
316 -31 36 c-27 31 -31 41 -26 79 4 36 2 43 -13 43 -10 0 -29 13 -42 29 -13
15 -37 34 -53 42 -17 9 -32 26 -37 44 -8 28 -3 117 8 157 7 23 57 38 130 38
l64 0 0 39 0 38 -64 7 c-69 7 -143 -1 -163 -17 -9 -6 -13 -6 -13 2 0 6 -5 11
-10 11 -6 0 -9 -6 -8 -12 2 -10 -15 -12 -66 -10 -39 2 -74 6 -78 8 -5 3 -15 0
-23 -6 -8 -6 -22 -9 -32 -6 -10 3 -36 1 -58 -4 -25 -6 -41 -6 -43 0 -5 13 -32
13 -32 1 0 -5 7 -12 15 -15 14 -5 14 -9 -1 -37 -18 -35 -31 -29 -36 16 -3 26
-7 30 -40 33 -21 1 -38 -2 -38 -6 0 -5 -32 -8 -72 -6 -44 2 -77 -1 -86 -8 -7
-7 -52 -12 -105 -12 -51 -1 -95 -5 -99 -11 -27 -36 24 -117 96 -155 28 -15 45
-31 44 -40 -5 -24 -114 -71 -215 -91 -88 -18 -99 -19 -198 -4 -58 9 -112 18
-119 21 -9 4 -11 33 -8 119 l5 115 -40 0 -39 0 8 -90 c3 -49 9 -94 12 -99 14
-22 -22 -28 -106 -18 -83 9 -87 10 -91 36 l-3 26 -12 -27 c-14 -34 -38 -36
-46 -6 -3 13 -24 51 -46 85 -37 56 -44 62 -70 59 -17 -2 -37 -9 -45 -16 -12
-10 -15 -10 -16 1 0 8 -2 25 -4 39 -2 14 -6 70 -9 125 -3 56 -9 112 -14 126
-6 14 -13 56 -17 93 -4 38 -14 81 -21 95 -8 14 -14 32 -14 39 0 13 -23 42 -34
42 -3 0 -6 -10 -6 -22 0 -13 -5 -30 -10 -38 -8 -13 -10 -13 -10 2 0 9 -5 20
-11 24 -24 14 -83 22 -100 13 -10 -5 -33 -11 -51 -13 -32 -4 -34 -2 -46 35
-24 77 -6 169 34 169 8 0 14 4 14 8 0 4 26 16 58 26 31 11 64 27 74 38 9 10
20 18 25 18 17 0 7 40 -12 54 -10 7 -20 26 -22 42 -5 35 -20 54 -42 54 -27 0
-71 65 -71 105 0 20 -4 34 -9 31 -18 -11 -26 60 -23 211 3 143 2 152 -15 146
-15 -5 -16 -4 -7 8 6 8 15 25 19 39 l8 25 -23 -20 c-17 -16 -15 -8 12 37 18
31 36 54 40 50 4 -4 11 -47 17 -97 16 -131 27 -188 57 -297 35 -130 40 -136
93 -118 32 10 44 11 53 2 8 -8 8 -12 1 -12 -6 0 -25 -15 -43 -33 -30 -30 -32
-35 -27 -90 3 -32 7 -61 10 -63 2 -3 91 2 198 11 382 30 697 54 879 66 102 6
244 18 315 26 72 8 155 16 185 18 165 11 373 27 428 31 l62 6 0 74 0 74 -30
-6 c-29 -6 -150 15 -150 26 0 8 71 39 103 45 15 3 38 7 52 10 l25 5 0 590 c0
551 -1 590 -17 599 -17 9 -17 10 0 16 16 7 17 33 17 356 l0 349 -25 -6 c-19
-5 -31 1 -55 24 -29 29 -35 52 -30 112 3 38 56 125 85 138 25 11 25 13 25 128
l0 116 -37 -6 c-126 -17 -210 -28 -303 -39 l-105 -12 -20 -42 c-22 -45 -56
-83 -77 -83 -8 0 -6 -5 5 -11 23 -13 22 -29 -2 -29 -12 0 -21 8 -24 23 -4 18
-5 17 -6 -6 -1 -28 -34 -66 -58 -67 -25 0 -25 -41 1 -79 14 -20 26 -49 26 -65
0 -15 5 -59 12 -98 11 -69 11 -72 -12 -90 -23 -18 -23 -19 -5 -61 9 -23 21
-51 25 -62 5 -13 24 -25 54 -33 29 -7 46 -18 46 -27 0 -19 14 -19 69 1 52 18
130 20 159 5 21 -11 39 -60 25 -70 -4 -3 -15 -19 -23 -35 -8 -17 -29 -38 -45
-48 -35 -20 -185 -37 -185 -20 0 6 -8 13 -17 16 -10 3 -27 20 -38 36 -19 29
-22 31 -70 25 -77 -10 -113 -25 -120 -52 -3 -13 -12 -23 -20 -23 -8 0 -15 -4
-15 -10 0 -5 -9 -10 -20 -10 -11 0 -20 -3 -20 -8 0 -4 -17 -15 -37 -25 -21
-10 -53 -27 -71 -38 -27 -18 -50 -21 -140 -23 -105 -1 -109 -2 -154 -35 -25
-18 -49 -44 -52 -57 -5 -17 -11 -21 -23 -17 -13 5 -15 2 -11 -15 4 -12 2 -20
-2 -17 -5 3 -17 -13 -27 -35 -10 -22 -23 -40 -30 -40 -13 0 -31 -54 -35 -105
-3 -25 -7 -30 -28 -28 -14 1 -48 -3 -77 -9 -66 -14 -88 -1 -80 49 5 29 3 34
-21 39 -15 4 -40 18 -56 31 -20 16 -36 22 -50 18 -12 -3 -46 -10 -76 -15 -30
-5 -89 -19 -130 -30 -194 -54 -323 -65 -354 -31 -14 15 -16 29 -10 66 l7 47
-56 -5 c-39 -3 -60 -1 -67 8 -11 13 -80 219 -80 239 0 7 -18 47 -40 89 -22 41
-40 87 -40 100 0 16 -12 34 -35 51 -42 32 -43 45 -9 85 28 34 53 39 87 17 12
-8 38 -17 58 -20 75 -13 80 -69 11 -101 -43 -19 -44 -20 -37 -59 11 -73 48
-67 59 8 8 50 27 71 76 81 19 4 49 19 67 32 l33 25 -26 44 c-23 39 -24 47 -14
78 23 70 158 154 227 141 101 -19 168 -83 168 -159 0 -32 -8 -51 -34 -83 -56
-70 -119 -90 -246 -80 -30 2 -30 2 -38 -63 -5 -36 -9 -86 -10 -113 -1 -26 -7
-47 -13 -47 -22 0 -83 -36 -76 -45 15 -21 43 -37 77 -45 l35 -8 0 69 c0 92 15
109 105 110 36 1 68 2 73 4 51 14 62 18 62 26 0 9 53 39 70 39 5 0 10 -16 10
-35 0 -19 -4 -35 -10 -35 -5 0 -14 -9 -20 -21 -9 -16 -7 -30 14 -68 38 -73 23
-99 -59 -102 -16 0 -39 -5 -50 -10 -13 -6 14 -7 77 -3 121 7 166 17 183 41 13
17 14 17 20 1 4 -10 13 -18 21 -18 8 0 14 -4 14 -9 0 -5 30 -23 68 -41 37 -17
88 -44 113 -61 25 -16 51 -29 57 -29 5 0 31 39 55 88 25 48 52 101 61 117 21
40 20 72 -2 77 -10 3 -40 -1 -67 -8 -112 -30 -209 -10 -184 38 14 25 13 72 -1
197 -13 108 -13 104 29 244 12 37 21 75 22 85 1 36 44 97 80 115 37 18 241 37
401 37 59 0 99 7 173 32 117 38 136 57 116 121 -41 135 -71 257 -71 289 0 43
42 99 75 99 117 0 241 -13 262 -27 17 -10 28 -12 36 -5 7 5 26 12 41 15 27 5
234 8 281 4 11 -1 44 -1 73 0 l52 2 0 39 0 38 -54 6 c-29 3 -99 3 -156 0 -117
-7 -347 12 -402 33 -27 10 -45 11 -63 4 -43 -16 -55 -12 -70 23 -16 38 -10 99
26 264 19 86 20 104 9 148 -16 62 -55 122 -90 140 -15 8 -61 15 -103 17 l-75
3 -45 -45 -45 -44 18 -24 c27 -34 7 -82 -35 -82 -28 0 -42 17 -47 55 l-3 30
-116 3 -116 3 -54 -44 c-30 -24 -68 -49 -84 -55 -18 -7 -43 -32 -60 -59 -28
-44 -30 -54 -30 -153 -1 -103 -2 -108 -34 -155 -46 -68 -50 -98 -17 -128 35
-32 46 -73 35 -128 -4 -24 -8 -67 -9 -95 0 -45 3 -53 23 -59 l22 -7 -25 -7
c-14 -4 -30 -4 -37 1 -7 6 -70 7 -151 2 l-139 -7 -6 24 c-4 13 -7 62 -7 108 0
90 26 171 56 171 14 0 18 16 15 55 -1 11 -22 38 -45 60 -24 22 -49 56 -57 75
-22 60 -68 118 -113 145 -25 14 -56 41 -69 58 -23 30 -33 34 -109 46 -45 8
-104 22 -130 33 -75 32 -163 6 -226 -67 -45 -51 -59 -82 -66 -150 -12 -107
-16 -122 -40 -148 -44 -47 -42 -61 12 -86 64 -30 86 -67 79 -132 -7 -57 -29
-95 -60 -102 -12 -3 -53 -6 -92 -6 -38 -1 -88 -6 -110 -11 -22 -5 -58 -10 -79
-10 -22 0 -66 -5 -97 -12 -79 -16 -150 1 -223 53 -49 35 -66 41 -137 49 -72 8
-84 7 -117 -10 -45 -25 -98 -25 -169 -3 -36 11 -61 27 -75 45 -18 27 -19 30
-4 53 22 33 40 41 111 50 88 10 91 14 97 94 3 40 12 81 22 95 20 32 20 42 -1
50 -10 4 -31 14 -48 23 -44 24 -99 32 -120 17 -9 -7 -23 -10 -30 -8 -19 8 -29
-46 -27 -142 2 -93 -6 -109 -62 -128 -37 -13 -38 -14 -18 -25 62 -33 53 -119
-16 -148 -20 -9 -41 -16 -46 -14 -5 1 -65 4 -134 6 -120 4 -126 5 -154 31 -48
47 -28 97 43 107 58 8 68 22 30 41 -28 15 -34 15 -60 2 -32 -17 -51 -60 -51
-113 0 -26 8 -41 36 -65 60 -53 90 -129 78 -204 l-6 -43 -31 16 c-44 22 -54
34 -61 76 -3 20 -9 53 -12 72 -3 19 -9 35 -13 35 -10 0 -7 121 7 198 22 128
32 206 34 259 2 51 3 53 34 59 39 7 65 54 44 78 -6 8 -17 13 -24 10 -10 -4
-12 2 -9 20 5 23 9 25 35 21 27 -5 30 -3 25 15 -3 11 -1 18 3 15 12 -7 29 56
36 130 2 33 10 95 16 137 10 73 9 79 -16 133 -30 67 -34 135 -10 195 9 22 14
51 12 65 -3 14 -1 25 3 25 12 0 11 125 -2 196 -6 32 -26 88 -45 123 -19 35
-33 66 -30 68 8 8 -23 63 -34 63 -6 0 -10 5 -10 11 0 8 4 8 14 0 15 -12 66 -5
66 9 0 10 -53 50 -67 50 -9 1 -53 67 -53 81 0 5 11 9 24 9 14 0 28 5 31 10 9
15 -28 12 -63 -6 -29 -14 -34 -14 -54 1 -23 17 -23 17 12 11 28 -5 31 -4 13 4
-13 5 -23 14 -23 20 0 14 47 12 53 -2 3 -7 4 -3 4 10 -1 14 -8 22 -20 22 -10
0 -15 5 -12 10 3 6 15 10 26 10 11 0 17 5 14 10 -3 6 -27 10 -53 10 -42 1 -45
2 -29 14 16 13 16 14 -10 20 -15 4 -36 9 -47 13 -10 3 -16 1 -13 -4 4 -6 -9
-6 -33 1 -45 12 -51 21 -17 30 27 6 69 -3 79 -18 6 -8 8 -8 8 0 0 25 -30 36
-85 32 -33 -3 -55 -1 -55 5 0 6 -8 3 -18 -6 -26 -24 -30 -22 -49 21 -16 38
-74 87 -103 87 -8 1 -20 4 -26 7 -6 4 -42 19 -80 34 -63 24 -82 27 -220 28
-83 0 -159 -1 -170 -3z m730 -1426 c10 -8 22 -13 25 -10 4 2 16 -4 28 -13 24
-19 43 -92 24 -92 -6 0 -11 -7 -11 -16 0 -11 -6 -15 -19 -11 -23 6 -61 -18
-61 -39 0 -8 4 -14 9 -14 4 0 6 -10 4 -23 -3 -14 2 -29 11 -36 9 -8 16 -21 15
-30 0 -10 -2 -11 -6 -3 -7 17 -33 15 -33 -3 0 -15 -11 -19 -38 -16 -8 1 -19
-2 -26 -8 -6 -5 -29 -12 -49 -14 -21 -2 -43 -9 -49 -15 -9 -9 -16 -8 -30 5
-11 10 -34 17 -53 16 -27 -1 -35 3 -35 17 0 11 -10 20 -25 24 -17 4 -25 13
-25 27 0 17 -3 19 -14 10 -11 -9 -25 -9 -55 -1 -34 9 -40 15 -39 35 1 13 6 21
11 18 4 -2 14 1 22 7 8 7 22 9 31 6 10 -4 25 1 35 10 14 12 40 17 103 18 65 1
88 5 103 19 11 9 27 17 36 17 32 0 42 63 13 82 -7 5 -5 8 6 8 9 0 18 6 21 13
2 6 8 9 12 5 4 -4 3 -14 -3 -21 -9 -10 -8 -14 2 -14 8 0 17 13 20 29 6 32 13
34 40 13z m-1841 -538 c49 -21 63 -42 47 -72 -12 -22 -20 -24 -94 -27 -80 -3
-81 -3 -84 -30 -6 -52 -87 -42 -126 14 -38 54 -8 119 46 99 14 -5 33 -4 48 2
14 5 45 13 70 17 25 4 49 8 53 9 4 0 22 -5 40 -12z m1059 -263 c20 -3 53 -1
73 6 24 8 60 9 106 5 81 -8 94 -29 20 -32 -27 -1 -61 -9 -76 -19 -23 -15 -28
-15 -36 -3 -8 12 -10 12 -18 0 -11 -17 -34 -4 -27 16 4 9 1 13 -6 11 -7 -3
-15 -15 -16 -29 -2 -13 -15 -34 -28 -46 -26 -24 -30 -38 -13 -48 7 -5 4 -13
-7 -26 -16 -18 -15 -18 30 -14 36 4 48 1 53 -11 4 -10 13 -14 28 -10 12 3 30
0 39 -7 16 -11 16 -15 3 -25 -9 -8 -13 -21 -9 -35 5 -20 4 -20 -11 -8 -11 9
-17 10 -17 2 0 -7 -21 -11 -53 -11 -48 0 -56 3 -76 30 -12 17 -26 28 -31 25
-15 -9 -23 17 -9 27 10 6 8 8 -10 6 -23 -3 -24 0 -26 59 -2 34 -6 66 -9 71 -3
5 1 15 9 22 8 7 12 16 9 21 -3 5 0 9 7 9 8 0 7 5 -2 16 -12 15 -10 16 26 10
22 -4 57 -9 77 -12z m-1046 -71 c16 -21 18 -62 4 -97 -7 -21 -6 -26 5 -26 19
0 19 -16 1 -27 -7 -4 -16 -28 -19 -51 -6 -52 10 -109 26 -93 6 6 25 11 42 11
l30 0 -33 -17 c-18 -8 -31 -18 -29 -20 7 -7 62 18 83 38 11 11 54 30 95 43 41
13 105 40 142 60 38 20 76 36 85 35 11 0 8 -4 -8 -10 -25 -10 -121 -68 -130
-79 -3 -4 -14 -7 -25 -7 -44 -2 -129 -33 -154 -56 -21 -20 -121 -69 -191 -94
-12 -4 -12 -3 -1 5 11 8 11 20 -3 74 -20 78 -20 112 -3 130 20 19 39 58 30 58
-14 0 -43 56 -43 81 0 50 67 79 96 42z m4208 -67 c46 -19 66 -52 66 -107 0
-42 -4 -50 -45 -87 -48 -44 -67 -46 -95 -8 -44 59 -53 156 -18 193 25 27 45
29 92 9z m-3427 -58 c22 -35 47 -77 56 -93 8 -17 32 -48 52 -70 49 -52 77
-102 78 -141 1 -24 9 -37 34 -54 18 -12 33 -27 33 -32 0 -5 16 -26 35 -46 19
-21 34 -41 34 -45 0 -4 10 -17 23 -27 13 -11 19 -19 14 -20 -5 0 -3 -7 4 -15
19 -22 0 -18 -70 16 -87 42 -145 83 -207 146 -105 109 -165 226 -166 328 0 59
14 115 31 115 4 0 26 -28 49 -62z m-417 -1418 c0 -5 11 -10 25 -10 14 0 28 -6
31 -14 4 -11 11 -8 29 10 29 29 36 29 65 6 18 -14 20 -21 11 -44 -13 -34 -46
-45 -70 -24 -17 16 -19 15 -24 -5 -8 -28 -31 -19 -35 14 -5 39 -22 33 -22 -8
0 -40 -29 -51 -32 -12 0 12 -2 27 -3 32 -2 6 -3 15 -4 22 0 7 -8 10 -15 7 -9
-3 -16 -22 -18 -47 -4 -53 -25 -60 -34 -10 -4 21 -14 43 -22 49 -14 10 -13 13
7 24 13 6 36 10 52 8 16 -3 29 -1 29 4 0 4 7 8 15 8 8 0 15 -4 15 -10z m1076
-436 c11 -17 20 -22 27 -15 7 7 6 15 -3 26 -15 18 -7 20 12 2 7 -7 31 -20 54
-30 55 -25 114 -81 125 -120 13 -46 11 -67 -6 -67 -9 0 -12 6 -9 15 4 10 0 15
-11 15 -9 0 -22 -13 -28 -30 -6 -16 -15 -30 -20 -30 -4 0 -5 5 -2 10 3 6 -1
13 -10 17 -10 3 -20 0 -25 -6 -5 -9 -9 -8 -14 4 -3 9 -10 13 -16 10 -5 -3 -10
0 -10 7 0 7 -5 20 -10 28 -9 13 -11 13 -20 0 -8 -13 -10 -12 -11 5 -1 16 -2
16 -8 -5 l-7 -25 -29 34 c-17 18 -48 47 -70 64 -34 26 -37 27 -20 7 11 -14 22
-27 25 -30 5 -5 40 -78 40 -84 0 -2 -32 -2 -70 -1 -54 3 -74 -1 -87 -13 -9 -9
-30 -16 -47 -15 -17 0 -36 -3 -41 -8 -6 -4 -17 -4 -25 1 -11 7 -7 13 18 27 36
21 41 33 12 33 -11 0 -29 9 -40 20 -14 14 -40 22 -80 27 -33 3 -60 8 -60 10 0
2 8 13 19 24 18 19 21 19 85 5 37 -9 75 -16 84 -16 15 1 14 3 -3 18 -11 9 -21
28 -22 42 -2 24 -1 24 12 6 19 -26 65 -14 66 17 1 17 2 18 6 5 5 -20 19 -24
25 -6 3 7 15 3 35 -12 30 -21 33 -22 49 -6 14 14 19 15 25 4 5 -7 9 -8 9 -3 0
6 10 -5 22 -24 12 -19 24 -29 26 -23 2 6 -9 30 -24 54 l-26 43 36 -34 c41 -39
46 -34 15 15 -17 29 -18 34 -5 34 9 0 23 -11 32 -26z m-262 -416 c8 14 86 17
86 3 0 -5 -8 -12 -17 -14 -14 -4 -12 -5 4 -6 18 -1 22 -6 19 -23 -2 -19 -13
-25 -57 -35 -52 -12 -118 -23 -169 -28 -14 -1 -25 -3 -25 -5 0 -1 -12 -3 -26
-4 -25 -1 -26 1 -25 41 1 32 5 43 17 43 8 0 19 4 25 9 8 7 105 41 118 41 3 0
6 -8 7 -17 0 -13 3 -11 11 7 l11 25 6 -25 c5 -17 9 -21 15 -12z m4570 1 c34
-40 34 -93 0 -182 -19 -50 -33 -71 -54 -82 -38 -20 -97 -26 -124 -14 -21 10
-23 16 -22 120 1 127 7 136 96 169 72 25 74 25 104 -11z m-4429 -259 c4 -6 11
-8 16 -4 6 3 22 3 36 -1 25 -6 25 -6 6 -23 -22 -19 -37 -62 -21 -62 5 0 7 -4
3 -10 -7 -11 -98 -4 -125 10 -14 8 -20 8 -20 0 0 -7 -8 -9 -19 -5 -11 3 -22 1
-26 -5 -4 -7 -12 -7 -26 0 -12 7 -19 7 -19 1 0 -5 -9 -9 -20 -8 -14 1 -20 8
-20 26 0 19 -3 22 -12 13 -19 -19 -26 -14 -20 13 6 31 46 45 162 55 47 4 88 8
92 8 4 1 10 -3 13 -8z m173 -16 c12 -4 22 -13 22 -20 0 -8 4 -14 10 -14 5 0 7
-7 4 -15 -5 -11 -2 -13 10 -9 9 3 13 10 10 15 -3 5 5 9 18 10 l23 0 -22 9
c-13 5 -23 15 -23 22 0 10 2 10 8 1 4 -7 18 -11 30 -8 14 2 22 -1 22 -11 0
-18 2 -17 47 1 41 17 55 19 33 4 -14 -9 22 -7 88 7 17 3 25 -2 32 -21 6 -15
10 -30 10 -35 0 -11 -131 -41 -143 -33 -6 3 -7 1 -3 -5 4 -8 0 -12 -11 -12
-16 -1 -16 -2 -3 -13 8 -7 23 -22 33 -34 18 -21 18 -22 -20 -47 -21 -14 -50
-26 -66 -26 l-28 0 37 45 c30 37 35 48 24 58 -10 9 -14 9 -18 -3 -10 -28 -61
-70 -84 -70 -61 0 -83 76 -36 120 12 11 18 23 14 27 -8 8 -26 -10 -57 -58
l-17 -24 -36 19 c-20 11 -33 22 -28 25 4 3 18 20 30 38 15 22 19 34 11 39 -27
16 32 30 79 18z m-1913 -341 c27 -77 27 -77 111 -93 57 -11 80 -20 82 -31 5
-26 -50 -33 -133 -15 -16 3 -24 3 -17 0 17 -8 -17 -64 -39 -64 -13 0 -19 13
-24 53 -4 28 -11 57 -15 62 -4 6 -14 29 -24 53 -18 48 -9 82 24 82 13 0 23
-14 35 -47z m1725 -287 c-14 -42 -48 -88 -60 -81 -5 3 -7 12 -3 20 7 21 -4 19
-29 -5 -12 -11 -30 -20 -39 -20 -10 0 -25 -3 -33 -6 -12 -5 -15 -2 -9 12 5 14
3 16 -13 10 -42 -17 -55 -19 -52 -5 2 10 -5 13 -25 11 -30 -3 -30 4 1 40 13
15 13 20 1 34 -12 15 -12 16 6 11 11 -4 66 -9 123 -12 l103 -5 17 30 c21 37
29 15 12 -34z m-1594 -16 c36 -14 53 -38 54 -75 0 -16 7 -52 15 -79 8 -27 15
-62 15 -79 0 -26 -3 -29 -22 -22 -56 17 -68 17 -74 1 -3 -9 -15 -16 -27 -16
-27 0 -100 35 -121 59 -20 22 -29 110 -14 128 7 8 7 22 1 40 -6 16 -8 34 -6
41 6 15 139 17 179 2z m2084 -121 c0 -10 6 -19 13 -22 6 -2 -3 -11 -20 -21
-18 -9 -33 -20 -33 -25 0 -9 -56 -25 -80 -23 -8 1 -28 -3 -45 -8 -57 -16 -105
-21 -105 -10 0 5 9 10 20 10 21 0 23 26 4 52 -26 32 -27 40 -6 29 35 -19 70
-12 105 19 19 17 49 33 66 36 17 4 31 10 31 15 0 5 11 -1 25 -13 14 -12 25
-29 25 -39z m-5340 -169 c23 -42 -2 -109 -67 -180 -50 -57 -140 -77 -156 -36
-6 15 32 97 57 121 8 9 32 37 53 63 21 26 45 52 53 59 18 13 45 2 60 -27z
m3322 -167 c2 -16 0 -44 -4 -63 -4 -19 -8 -51 -8 -71 0 -20 -6 -42 -14 -48 -7
-6 -62 -16 -122 -22 -126 -13 -137 -7 -132 69 l3 44 80 30 c44 17 100 44 125
59 56 36 68 36 72 2z m-4 -367 c-3 -19 -12 -22 -133 -32 -636 -57 -975 -84
-1032 -84 -41 0 -40 17 3 42 22 12 83 20 254 33 124 9 261 20 305 25 44 5 159
14 255 20 96 6 209 15 250 19 89 8 102 5 98 -23z m22 -144 c0 -9 7 -35 14 -58
8 -22 14 -76 14 -120 0 -45 -4 -70 -8 -59 -7 19 -7 19 -14 -2 -4 -13 -11 -23
-15 -23 -4 0 -67 -5 -141 -11 l-133 -10 -22 27 c-25 32 -60 27 -69 -10 -4 -15
-15 -25 -30 -28 -49 -10 -51 -1 -37 143 6 73 14 136 17 140 6 11 80 22 102 15
12 -4 33 -42 62 -111 23 -58 46 -105 49 -105 4 0 1 45 -7 100 -8 55 -12 107
-8 115 3 10 19 15 45 15 l39 0 12 -72 c25 -152 21 -143 69 -140 24 1 49 -3 57
-9 18 -15 18 -10 -1 111 -18 114 -18 123 -5 115 6 -3 10 -14 10 -23z m-614
-47 c8 -33 6 -35 -53 -43 -60 -9 -68 -35 -11 -40 27 -2 39 -9 44 -24 7 -24
-17 -48 -49 -48 -13 0 -18 -6 -15 -22 3 -21 7 -23 55 -20 48 4 54 2 62 -20 14
-37 -6 -47 -106 -54 -83 -6 -91 -5 -96 12 -13 43 -39 244 -34 258 6 15 41 21
139 24 54 2 58 0 64 -23z m-260 -20 c29 -19 39 -61 21 -89 -14 -20 -13 -24 10
-46 33 -32 29 -85 -9 -113 -35 -26 -184 -38 -193 -16 -15 41 -43 255 -34 264
12 12 113 24 154 18 17 -3 40 -11 51 -18z"/>
<path d="M8925 6260 c-17 -4 -50 -16 -75 -27 -25 -11 -62 -26 -82 -32 -40 -13
-57 -29 -41 -40 28 -19 53 -67 53 -101 0 -40 32 -80 66 -80 30 -1 52 -23 66
-66 13 -38 15 -39 72 -47 78 -11 112 3 126 52 12 45 13 109 1 147 -5 16 -19
61 -31 100 -23 75 -37 89 -95 96 -17 2 -44 1 -60 -2z"/>
<path d="M3348 6214 c-74 -37 -61 -58 43 -68 117 -13 236 53 153 84 -47 18
-145 10 -196 -16z"/>
<path d="M8017 6040 c-14 -11 -28 -20 -31 -20 -17 0 -85 -54 -95 -76 -6 -14
-11 -58 -11 -98 0 -84 22 -126 66 -126 14 0 35 -5 46 -11 12 -6 47 -12 77 -13
l56 -1 0 -40 c0 -22 -4 -52 -8 -67 -6 -25 -5 -28 16 -28 38 0 54 21 76 97 20
66 20 75 7 114 -11 31 -12 47 -4 56 6 7 7 13 4 13 -4 0 -2 9 4 21 13 23 16 86
5 118 -4 12 -25 35 -47 52 -51 36 -121 40 -161 9z"/>
<path d="M1153 5424 c-29 -13 -33 -18 -33 -54 0 -27 8 -52 23 -71 19 -26 22
-42 20 -103 -2 -66 0 -75 27 -105 15 -19 31 -51 34 -72 5 -32 11 -38 36 -44
32 -7 104 2 131 16 11 5 18 27 22 64 4 40 14 67 35 96 l30 40 -20 62 c-35 109
-40 118 -79 143 -28 18 -51 23 -89 23 -28 -1 -56 3 -63 10 -14 14 -34 13 -74
-5z"/>
<path d="M4940 5372 c-14 -9 -31 -22 -38 -29 -7 -7 -26 -20 -42 -30 -17 -9
-30 -21 -30 -25 0 -4 -5 -8 -11 -8 -5 0 -30 -20 -54 -44 -24 -25 -58 -52 -74
-61 -62 -31 -26 -80 56 -76 37 1 48 7 85 47 23 25 57 68 77 95 19 27 40 48 47
45 13 -5 39 78 29 95 -8 12 -16 11 -45 -9z"/>
<path d="M3260 5035 c-6 -19 -25 -44 -42 -56 -32 -23 -67 -89 -68 -127 l0 -23
22 21 c28 26 93 43 135 37 30 -5 33 -3 33 18 0 13 -11 45 -25 71 -14 26 -25
55 -25 65 0 33 -18 30 -30 -6z"/>
<path d="M2530 4979 c-47 -16 -114 -34 -148 -41 -53 -10 -68 -17 -89 -45 -27
-35 -27 -52 -1 -125 15 -43 33 -47 91 -23 53 22 129 19 160 -5 30 -24 53 -90
62 -180 9 -84 23 -106 66 -105 50 0 64 35 47 112 -7 33 -13 124 -14 208 0 134
-3 154 -22 193 -27 51 -35 51 -152 11z"/>
<path d="M700 4856 c-12 -5 -35 -36 -51 -68 -34 -68 -50 -76 -159 -86 l-75 -7
-6 -55 c-4 -43 -2 -58 10 -67 23 -18 90 -16 155 6 55 18 57 18 67 0 7 -14 6
-19 -3 -19 -7 0 -26 -29 -42 -65 -15 -35 -36 -70 -45 -78 -20 -18 -146 -81
-186 -93 -16 -5 -40 -26 -55 -47 -49 -72 -234 -136 -270 -92 -12 14 -11 30 1
111 16 98 14 105 -23 111 -17 3 -18 -15 -18 -252 0 -253 0 -256 20 -245 11 6
39 10 63 10 23 -1 57 2 75 6 37 7 61 -13 62 -54 0 -39 -18 -61 -58 -68 -20 -3
-47 -16 -60 -27 -15 -14 -37 -21 -62 -22 l-40 0 0 -125 0 -126 30 -17 c23 -14
30 -25 30 -48 0 -34 -26 -79 -46 -79 -11 0 -14 -23 -14 -107 0 -60 4 -115 10
-123 5 -9 5 -19 -2 -27 -8 -10 -7 -13 3 -13 10 0 10 -3 1 -12 -7 -7 -12 -31
-12 -53 0 -40 2 -42 39 -55 41 -13 118 -8 167 10 18 7 25 16 22 32 -3 20 -8
22 -59 19 -43 -2 -61 2 -80 18 l-24 19 21 29 c17 22 32 29 75 35 30 4 64 4 76
2 18 -5 105 -93 184 -187 22 -26 29 -28 108 -30 78 -2 84 0 100 22 9 13 32 41
51 62 57 61 56 60 90 240 14 74 35 92 110 97 74 5 86 18 72 72 -9 35 -7 44 12
72 23 35 48 45 113 47 34 1 45 -4 66 -29 29 -33 32 -43 43 -115 l7 -50 12 30
c7 17 15 45 18 63 6 28 2 36 -25 60 -32 27 -60 56 -117 122 -26 30 -30 32 -31
15 0 -48 -65 -88 -86 -54 -13 22 -149 -14 -162 -43 -2 -5 -9 -8 -17 -8 -7 0
-18 -6 -24 -14 -7 -8 -25 -18 -41 -21 -29 -6 -29 -7 -24 -63 5 -49 3 -62 -18
-91 -45 -67 -147 -99 -206 -66 -15 8 -46 19 -69 25 -23 6 -49 17 -57 25 -8 8
-21 15 -29 15 -8 0 -26 11 -42 25 -23 22 -26 31 -20 62 3 20 17 52 31 72 14
21 24 50 24 71 0 25 12 55 40 98 37 57 41 68 45 149 11 174 41 250 109 278
153 64 306 141 306 155 0 5 -13 16 -30 25 -48 25 -51 82 -11 260 13 58 17 109
15 183 -4 98 -2 105 19 123 12 10 28 18 35 19 6 0 12 3 12 8 0 11 -124 9 -150
-2z"/>
<path d="M261 4691 c-8 -5 -45 -12 -83 -16 -37 -4 -70 -11 -73 -15 -13 -20 18
-105 52 -147 37 -45 37 -45 88 -38 60 7 89 29 64 48 -34 25 -40 53 -23 99 8
24 16 50 17 58 2 17 -22 24 -42 11z"/>
<path d="M2016 4675 c-61 -30 -66 -38 -50 -83 7 -20 13 -48 14 -62 1 -47 12
-68 40 -80 22 -9 35 -9 57 2 23 10 33 28 55 92 14 43 38 90 52 105 14 15 26
31 26 37 0 5 -33 10 -73 11 -58 1 -82 -3 -121 -22z"/>
<path d="M1783 4473 c-3 -16 -15 -41 -25 -58 -10 -16 -18 -40 -18 -53 0 -30
23 -102 32 -102 5 0 8 -6 8 -13 0 -7 6 -22 14 -32 20 -28 41 -6 56 56 7 28 23
63 37 79 26 32 24 50 -8 50 -11 0 -17 4 -14 10 3 5 -4 17 -15 27 -12 10 -26
28 -31 41 -12 30 -27 28 -36 -5z"/>
<path d="M936 4232 c10 -64 -13 -95 -109 -142 -45 -23 -93 -48 -107 -55 -14
-7 -49 -23 -78 -36 -34 -15 -59 -33 -68 -50 -15 -29 -49 -291 -41 -312 7 -18
68 -47 99 -47 32 0 191 94 223 132 30 35 22 47 -30 48 -93 1 -110 35 -63 129
39 78 72 100 119 81 38 -16 46 -48 29 -125 -19 -90 -19 -90 13 -88 34 2 111
40 144 71 26 24 26 25 20 142 -8 132 -21 209 -47 254 -14 27 -23 31 -64 34
l-46 3 6 -39z"/>
<path d="M9387 3918 c-46 -20 -51 -20 -98 -6 l-49 16 -63 -45 c-34 -25 -64
-47 -65 -49 -2 -1 -1 -16 3 -33 4 -21 11 -28 22 -24 12 5 12 7 2 14 -16 10
-15 10 39 34 29 12 46 15 50 8 11 -16 52 -26 52 -13 0 7 8 9 21 5 30 -10 145
5 128 16 -8 5 -11 9 -6 10 66 13 95 47 65 77 -17 17 -45 14 -101 -10z"/>
<path d="M10060 1802 c-69 -7 -137 -17 -152 -22 -23 -7 -28 -5 -28 8 0 12 -3
13 -12 4 -7 -7 -30 -12 -52 -12 -23 0 -68 -5 -101 -10 -33 -6 -87 -11 -120
-11 -33 0 -134 -6 -224 -14 -90 -8 -168 -12 -172 -9 -5 3 -9 1 -9 -4 0 -5 -26
-10 -57 -11 -82 -2 -121 -10 -178 -37 -56 -26 -200 -58 -216 -48 -6 3 -8 17
-4 31 6 25 6 25 -52 19 -32 -3 -145 -13 -252 -21 -107 -9 -196 -17 -199 -19
-8 -9 -9 -76 -1 -82 5 -3 9 -15 9 -28 0 -14 9 -27 24 -34 13 -6 26 -23 30 -39
4 -15 13 -41 21 -58 7 -16 17 -52 22 -80 8 -48 10 -50 42 -53 40 -4 68 16 35
24 -24 6 -99 153 -85 167 4 4 20 3 35 -3 15 -5 41 -10 57 -10 43 0 66 -16 74
-50 4 -19 13 -30 24 -30 12 0 22 -13 30 -42 l13 -41 161 7 c221 9 245 15 302
71 25 25 53 65 62 88 21 53 43 88 52 82 4 -2 2 -44 -5 -92 -19 -133 -23 -123
44 -123 62 0 223 10 627 41 143 11 299 22 348 26 l87 6 0 211 0 211 -28 0
c-15 1 -83 -5 -152 -13z m-992 -137 c-3 -14 -1 -28 3 -31 20 -12 6 -26 -47
-50 -57 -25 -215 -74 -240 -74 -7 0 -21 16 -30 36 -17 35 -17 37 1 50 10 8 28
14 39 15 12 0 68 18 126 39 58 21 116 38 129 39 20 1 23 -3 19 -24z"/>
<path d="M1845 664 c-9 -2 -230 -24 -405 -39 -119 -10 -300 -26 -395 -35 -55
-5 -149 -14 -210 -20 -60 -5 -165 -14 -232 -20 -71 -5 -138 -16 -160 -26 -60
-26 -221 -57 -366 -69 -59 -6 -77 -11 -77 -23 0 -17 -1 -17 260 18 85 11 218
25 295 30 77 5 223 17 325 25 102 9 248 20 325 25 77 6 178 14 225 20 47 5
150 14 230 19 80 6 152 12 161 16 36 14 59 90 24 79z"/>
<path d="M1635 489 c-139 -16 -652 -60 -1040 -89 -275 -20 -355 -31 -355 -50
0 -6 -7 -10 -15 -10 -8 0 -14 6 -12 13 1 6 -4 11 -11 9 -7 -1 -21 2 -32 8 -12
6 -21 7 -25 0 -3 -5 9 -14 27 -19 42 -12 15 -13 -34 -2 -30 7 -38 6 -38 -5 0
-8 -5 -14 -10 -14 -6 0 -10 8 -8 18 2 14 -5 18 -40 20 -32 2 -42 0 -42 -12 0
-8 10 -17 22 -19 l23 -4 -22 -2 c-22 -1 -23 -4 -23 -111 l0 -110 40 0 c29 0
40 -4 40 -15 0 -8 7 -15 15 -15 11 0 15 11 15 40 l0 40 40 0 40 0 0 40 c0 22
4 40 10 40 13 0 9 22 -6 35 -6 5 -14 20 -16 31 -4 17 -1 22 18 22 18 0 25 -8
30 -31 3 -17 10 -38 15 -47 9 -18 33 -111 49 -192 l11 -58 474 0 c303 0 493 4
527 11 29 6 62 13 73 15 22 4 93 63 79 65 -5 1 -20 2 -34 2 -23 2 -26 9 -46
99 -29 132 -27 128 -73 128 -32 0 -41 4 -46 21 -4 12 -3 25 3 31 12 12 215 33
237 24 11 -4 15 -15 13 -33 -2 -23 -8 -29 -35 -31 -21 -2 -33 -9 -33 -18 0
-17 40 -197 44 -202 2 -2 23 15 47 38 l43 41 -21 102 c-12 56 -19 104 -17 106
2 2 20 4 41 5 l38 1 14 -62 c16 -69 25 -78 34 -35 3 15 22 50 41 77 19 28 44
65 55 83 l20 32 -37 -1 c-20 -1 -68 -5 -107 -10z m-407 -121 c5 -7 20 -61 32
-120 22 -102 22 -108 6 -133 -22 -33 -57 -47 -126 -47 -71 -1 -112 20 -133 69
-21 50 -50 190 -43 209 3 9 20 14 45 14 34 0 41 -4 46 -22 3 -13 13 -59 23
-103 15 -63 24 -83 43 -93 32 -18 83 -1 75 26 -3 9 -13 57 -22 105 -15 76 -15
90 -3 98 20 12 45 11 57 -3z m-375 -50 c32 -43 147 -236 147 -247 0 -5 -7 -12
-16 -15 -32 -12 -65 -5 -86 19 -16 18 -32 25 -60 25 -31 0 -40 -5 -53 -29 -24
-48 -85 -53 -85 -7 0 28 29 235 36 258 3 10 18 18 37 21 18 2 37 5 44 5 7 1
23 -13 36 -30z m-270 -10 c29 -11 67 -56 67 -81 0 -8 -13 -17 -30 -20 -32 -7
-60 0 -60 14 0 5 -11 16 -24 24 -20 13 -29 14 -47 5 -19 -10 -21 -18 -17 -60
3 -27 12 -60 22 -74 22 -35 67 -35 93 -2 17 23 35 30 76 27 27 -2 21 -46 -11
-82 -23 -25 -38 -33 -79 -36 -121 -12 -203 62 -203 182 0 98 99 146 213 103z"/>
</g>
</svg>
