<?xml version="1.0" standalone="no"?>
<!DOCTYPE svg PUBLIC "-//W3C//DTD SVG 20010904//EN"
 "http://www.w3.org/TR/2001/REC-SVG-20010904/DTD/svg10.dtd">
<svg version="1.0" xmlns="http://www.w3.org/2000/svg"
 width="240.000000pt" height="320.000000pt" viewBox="0 0 240.000000 320.000000"
 preserveAspectRatio="xMidYMid meet">
<metadata>
Created by potrace 1.15, written by Peter Selinger 2001-2017
</metadata>
<g transform="translate(0.000000,320.000000) scale(0.100000,-0.100000)"
fill="#000000" stroke="none">
<path d="M1336 3000 c0 -17 4 -33 7 -37 10 -9 -14 -34 -26 -26 -6 3 -7 1 -3
-5 4 -7 -2 -22 -13 -34 -12 -12 -21 -28 -21 -36 0 -9 -6 -12 -16 -8 -9 3 -18
6 -20 6 -2 0 -4 7 -4 15 0 22 -30 18 -57 -7 -13 -12 -23 -16 -23 -10 0 7 5 12
10 12 6 0 5 6 -2 14 -7 7 -18 12 -24 9 -13 -5 -13 -35 0 -44 12 -9 -2 -29 -19
-29 -9 0 -12 -6 -9 -15 4 -8 1 -15 -6 -15 -6 0 -8 -5 -5 -10 9 -14 -4 -52 -16
-45 -5 4 -9 1 -9 -4 0 -6 8 -11 18 -12 9 0 12 -3 5 -5 -7 -3 -9 -13 -6 -21 5
-12 2 -15 -10 -10 -11 4 -14 2 -10 -9 3 -7 1 -14 -3 -14 -11 0 -10 -62 1 -80
4 -7 9 -23 11 -34 1 -12 5 -38 9 -58 4 -25 2 -38 -5 -38 -6 0 -8 5 -5 10 3 6
1 10 -4 10 -16 0 -13 -20 3 -26 20 -8 7 -44 -15 -44 -24 0 -25 -16 -2 -24 15
-6 15 -8 3 -17 -13 -8 -13 -10 0 -18 8 -6 11 -13 7 -17 -3 -4 -13 -1 -21 6 -9
6 -21 10 -28 7 -7 -2 -21 0 -31 5 -14 7 -16 13 -7 22 8 10 5 15 -11 19 -17 5
-20 11 -15 31 4 17 1 29 -11 38 -10 7 -18 20 -18 28 0 10 -8 14 -22 13 -17 -2
-21 1 -16 14 5 12 2 15 -8 11 -19 -7 -44 11 -53 38 -5 15 -13 20 -29 17 -14
-3 -29 2 -36 11 -8 9 -17 16 -22 16 -4 0 -25 11 -45 25 -21 14 -44 23 -51 21
-7 -3 -13 -2 -13 2 0 5 -17 7 -37 5 -30 -2 -34 -1 -18 6 18 9 17 10 -7 10 -15
1 -29 -3 -32 -7 -5 -9 -77 -8 -128 3 -23 4 -38 3 -38 -3 0 -5 -25 -10 -54 -11
-49 -1 -163 -34 -176 -50 -3 -4 -16 -11 -30 -18 -14 -6 -46 -28 -72 -49 l-48
-39 0 -613 0 -612 35 -68 c19 -37 35 -61 35 -54 0 6 -9 29 -20 49 -30 56 -26
89 4 36 14 -23 27 -50 30 -60 3 -10 3 10 0 44 -3 35 0 71 5 81 6 11 43 31 86
47 41 15 78 32 82 39 5 6 8 30 8 54 0 24 6 46 12 50 7 4 16 18 20 30 l9 23 27
-21 c15 -12 30 -36 35 -53 7 -28 16 -35 71 -54 83 -28 88 -34 57 -68 -29 -31
-31 -38 -15 -66 8 -16 4 -27 -20 -58 -35 -44 -39 -56 -15 -47 13 5 15 2 9 -16
-3 -13 -9 -34 -11 -48 -3 -19 0 -17 12 10 l16 34 16 -27 c18 -30 32 -35 32
-12 0 18 16 20 18 3 0 -7 6 -33 12 -58 10 -41 8 -82 -7 -128 -4 -13 -3 -14 5
-3 5 7 14 11 20 7 5 -3 15 8 21 24 5 17 13 30 16 30 3 0 3 -4 0 -10 -3 -5 -2
-10 4 -10 5 0 12 8 15 18 3 9 3 -5 1 -33 -4 -44 -3 -48 9 -32 7 9 16 35 20 57
3 22 11 40 16 40 13 0 13 -31 0 -66 -6 -15 -8 -30 -4 -33 4 -3 9 0 11 7 3 6
10 9 15 6 7 -4 8 -2 4 4 -3 6 3 16 15 23 21 11 22 10 16 -42 -3 -30 -9 -66
-13 -81 -5 -23 -3 -28 11 -28 16 0 17 -7 12 -67 -4 -38 -12 -102 -18 -143 -6
-41 -12 -96 -14 -123 -1 -36 -8 -54 -28 -75 -34 -35 -35 -49 -2 -28 37 24 58
20 109 -25 58 -51 58 -62 10 -286 -13 -61 -103 4 -164 118 -29 56 -51 72 -65
49 -3 -6 -17 -7 -31 -4 -23 6 -58 -3 -111 -28 -12 -6 -36 -11 -52 -12 -17 -1
-31 -4 -31 -7 0 -12 -59 -16 -70 -5 -7 7 -10 6 -10 -2 0 -7 -11 -12 -25 -12
-26 0 -34 -15 -12 -23 9 -4 9 -6 0 -6 -6 -1 -15 4 -18 9 -10 16 -22 12 -28
-10 -4 -14 -10 -18 -22 -13 -11 4 -21 0 -27 -10 -5 -10 -21 -17 -38 -17 -17 0
-30 -4 -30 -10 0 -5 -13 -10 -30 -10 -28 0 -30 -3 -30 -35 l0 -35 415 0 c388
0 415 1 416 18 0 9 2 24 3 32 8 39 18 139 18 178 0 32 4 42 14 38 10 -4 11 0
2 19 -9 20 -7 30 8 52 17 26 19 26 22 8 2 -11 9 -26 15 -33 8 -10 7 -16 -3
-22 -28 -17 -19 -45 33 -97 43 -44 57 -53 87 -53 34 0 38 4 75 67 21 36 41 61
43 54 2 -7 -11 -36 -30 -64 -46 -69 -71 -118 -64 -125 3 -3 6 0 6 7 0 7 12 2
30 -10 36 -27 44 -22 30 17 l-10 29 20 -24 c11 -13 20 -38 20 -57 l0 -34 625
0 625 0 0 69 c0 67 -1 69 -30 79 -43 16 -95 54 -98 75 -2 10 6 45 17 78 12 32
21 66 21 73 0 8 15 49 34 90 19 41 32 77 29 80 -3 3 -2 18 3 33 7 26 9 24 14
-22 4 -27 8 176 8 453 2 439 0 507 -14 533 -9 18 -21 28 -29 26 -9 -4 -11 1
-8 16 4 20 2 19 -17 -5 -24 -31 -40 -36 -40 -13 0 18 -24 31 -75 41 -40 7 -67
27 -78 55 -4 12 -15 15 -36 13 -17 -2 -30 0 -30 4 5 30 -3 35 -19 14 l-18 -23
-13 37 c-7 21 -16 32 -20 25 -4 -6 -14 1 -25 20 l-18 31 23 -12 24 -13 -20 23
-20 23 32 -16 c24 -13 33 -14 36 -4 4 7 6 6 6 -4 1 -14 7 -15 39 -8 20 6 43
11 51 13 19 4 34 33 21 41 -17 11 -11 23 18 33 17 7 21 11 10 11 -10 1 -18 6
-18 11 0 6 -15 11 -32 11 -18 1 -25 3 -15 6 20 5 23 36 4 52 -8 6 -28 14 -45
17 -24 5 -32 2 -42 -15 -6 -12 -15 -19 -19 -16 -5 2 -15 -2 -22 -11 -8 -10
-25 -14 -48 -12 -33 3 -36 1 -41 -27 -9 -47 -44 -117 -79 -154 -17 -18 -36
-41 -41 -50 -7 -13 -9 -10 -10 13 0 24 -2 27 -15 16 -21 -17 -19 -1 5 38 19
30 29 62 11 34 -6 -10 -15 -5 -37 20 -16 18 -66 55 -112 82 -45 26 -82 51 -82
56 0 4 23 10 52 13 60 8 124 46 139 85 6 14 10 47 11 73 0 43 2 47 37 62 21
10 44 17 52 17 20 -1 49 -25 49 -41 0 -12 2 -12 9 0 7 11 10 10 14 -5 4 -16 5
-17 6 -1 0 9 6 17 11 17 6 0 10 7 10 15 0 8 15 31 34 51 33 35 34 37 21 73 -7
20 -18 35 -24 34 -21 -5 -20 107 2 131 9 11 16 27 15 35 -2 9 2 16 9 16 21 0
27 15 5 15 -23 0 -31 9 -37 42 -3 13 -9 24 -15 26 -6 2 -7 20 -4 43 5 30 2 44
-11 59 -10 12 -13 20 -7 20 27 0 9 29 -23 40 -40 13 -41 16 -18 42 15 17 15
18 -16 12 -17 -4 -31 -3 -30 2 6 36 -2 46 -35 42 -20 -2 -32 0 -29 6 4 5 -3 7
-15 4 -18 -5 -23 -1 -28 19 -6 21 -8 23 -16 10 -5 -9 -14 -14 -21 -11 -7 2
-28 -10 -47 -28 -29 -26 -36 -28 -38 -15 -2 10 -8 15 -13 12 -12 -8 -11 2 3
25 15 23 4 37 -16 20 -13 -10 -15 -7 -11 19 4 33 4 33 -37 36 -17 1 -28 -3
-28 -11 0 -32 -40 -22 -107 27 -25 19 -20 33 7 19 13 -7 20 -6 23 4 6 15 -19
30 -34 20 -5 -3 -9 0 -9 5 0 6 -10 11 -22 11 -19 0 -23 -5 -22 -30z m337 -341
c-14 -14 -5 -49 14 -49 14 0 43 -23 43 -34 0 -3 -7 -6 -17 -6 -9 0 -13 -3 -9
-7 4 -5 19 -8 33 -8 28 0 55 -31 38 -43 -17 -12 -16 -32 3 -32 10 0 27 7 39
15 20 14 22 14 19 -9 -1 -13 -11 -37 -21 -52 -16 -25 -17 -33 -5 -73 7 -26 13
-54 14 -63 0 -12 8 -18 26 -18 19 0 30 -9 44 -35 11 -19 17 -37 15 -39 -3 -3
-39 -2 -82 1 -51 4 -77 10 -77 18 0 30 -24 33 -145 23 -66 -6 -138 -11 -160
-11 -24 -1 -48 -8 -60 -20 -16 -15 -30 -17 -70 -13 -27 3 -75 7 -105 8 -30 1
-58 6 -61 11 -9 13 18 76 44 104 17 19 19 27 9 48 -25 54 -5 94 46 95 13 0 40
9 60 19 20 11 57 29 81 41 23 11 68 46 98 76 38 38 61 53 72 49 35 -14 71 -17
71 -7 0 6 10 13 23 15 12 2 24 5 27 6 2 0 -1 -4 -7 -10z m-1098 -203 c22 -8
59 -19 81 -26 40 -12 160 -111 148 -123 -3 -3 8 -33 25 -67 34 -68 39 -107 16
-116 -21 -8 -30 -70 -16 -116 7 -21 28 -54 48 -73 34 -32 36 -36 27 -76 -11
-51 -35 -70 -65 -51 -24 15 -149 32 -149 20 0 -12 46 -28 73 -25 16 1 22 -3
22 -18 0 -16 8 -21 43 -23 23 -2 42 -7 42 -12 0 -18 -73 -31 -167 -30 -54 1
-104 1 -110 1 -21 -1 -15 -28 7 -34 11 -3 20 -2 20 2 0 6 12 7 135 11 101 3
98 4 92 -30 -4 -16 -2 -32 3 -35 17 -11 11 -33 -17 -61 -24 -22 -25 -26 -8
-21 11 2 27 8 36 11 13 6 15 0 9 -42 -9 -72 -30 -98 -84 -106 -82 -13 -115 3
-328 149 -65 45 -148 146 -148 181 0 8 -3 14 -8 14 -4 0 -9 30 -11 68 -8 159
-10 147 69 307 41 83 76 164 77 180 2 17 8 32 13 33 6 2 10 23 10 46 0 38 3
44 33 58 17 8 34 16 37 17 2 0 22 -5 45 -13z m819 -398 c19 -29 47 -65 63 -79
70 -64 123 -120 123 -129 0 -6 -11 -16 -25 -22 -14 -6 -25 -20 -25 -30 0 -10
-10 -23 -22 -28 -31 -12 -6 -13 26 0 30 11 45 -4 19 -19 -17 -10 -16 -10 2
-11 11 0 31 7 43 16 33 23 52 11 52 -30 0 -23 6 -39 18 -45 9 -6 12 -11 7 -11
-7 0 -9 -15 -7 -35 2 -20 0 -35 -6 -35 -6 0 -8 -10 -4 -22 4 -17 2 -20 -12
-15 -11 5 -16 3 -14 -5 7 -19 -45 -63 -73 -63 -16 0 -25 -4 -22 -11 2 -7 -6
-12 -19 -13 -49 -1 -107 -9 -118 -16 -7 -4 -24 7 -42 29 -16 20 -35 36 -42 36
-6 0 -12 8 -13 18 -1 14 8 17 60 18 71 0 117 10 117 24 0 6 -21 10 -46 10 -39
0 -52 5 -75 30 -36 37 -37 58 -1 67 l27 7 -29 6 c-45 8 -45 30 1 31 21 1 49 4
63 8 l24 7 -22 15 -22 16 26 12 c14 6 29 9 33 7 4 -3 13 -1 21 4 13 8 12 11
-3 22 -10 8 -17 20 -15 28 4 21 -39 14 -75 -12 -26 -19 -29 -19 -52 -4 -14 9
-32 28 -41 41 -13 20 -19 23 -31 14 -22 -19 -25 -5 -5 22 23 32 42 75 42 99 0
32 31 100 46 100 7 0 29 -24 48 -52z m-1187 -238 c14 1 12 6 -11 24 -18 15
-24 26 -17 30 21 14 51 -5 76 -48 24 -40 34 -93 17 -82 -4 2 -14 1 -21 -3 -19
-12 -110 8 -142 32 -32 23 -39 40 -12 30 16 -6 16 -5 0 17 -19 27 -22 44 -7
35 6 -3 18 1 27 11 16 15 19 15 45 -15 15 -17 36 -31 45 -31z m1681 -62 c0
-24 3 -84 7 -135 9 -110 5 -127 -39 -183 -19 -24 -32 -48 -29 -54 4 -5 1 -6
-8 0 -8 5 -18 9 -24 9 -5 1 -22 5 -38 9 -19 6 -38 3 -62 -8 -28 -14 -38 -14
-55 -4 -11 7 -20 20 -20 30 0 9 35 51 78 93 65 62 89 95 133 180 30 58 55 105
56 105 1 0 2 -19 1 -42z m-994 -1260 c-5 -13 -8 -46 -9 -73 0 -35 -7 -60 -22
-81 l-22 -31 -60 57 c-34 30 -61 60 -61 65 0 14 130 83 158 84 20 1 22 -2 16
-21z"/>
<path d="M566 2139 c-48 -12 -103 -49 -86 -59 8 -5 10 -19 6 -36 -5 -25 -1
-32 29 -53 43 -29 106 -32 150 -8 l30 17 -37 -6 c-72 -12 -121 -8 -115 9 2 6
15 12 28 12 15 0 25 7 27 18 4 21 40 23 48 3 3 -8 12 -17 20 -20 15 -6 64 34
64 54 0 6 10 20 23 30 l22 19 -37 15 c-41 17 -111 19 -172 5z"/>
<path d="M2229 2933 c-7 -7 -20 -11 -30 -8 -12 4 -21 1 -25 -9 -5 -12 -10 -13
-26 -5 -16 8 -23 8 -29 -2 -18 -29 -4 -40 20 -16 11 10 13 9 8 -5 -4 -12 -2
-15 9 -11 8 3 25 -2 39 -11 14 -9 25 -12 25 -7 0 5 16 1 35 -7 19 -9 35 -20
35 -25 0 -4 -4 -5 -10 -2 -5 3 -10 2 -10 -3 0 -21 28 -20 34 1 3 12 8 19 11
15 3 -3 1 -17 -6 -31 l-11 -25 -36 24 c-19 13 -43 24 -54 24 -11 0 -28 5 -40
11 -18 9 -19 8 -13 -10 8 -25 -1 -27 -21 -6 -9 8 -25 15 -37 15 -20 -1 -21 -2
-4 -14 9 -7 17 -18 17 -23 0 -6 17 -9 40 -7 31 3 38 0 34 -11 -3 -8 -22 -17
-42 -21 -60 -10 -73 -15 -66 -26 5 -7 0 -9 -14 -6 -13 4 -23 0 -26 -8 -3 -8
-12 -14 -20 -14 -8 0 -17 -4 -20 -9 -3 -4 6 -6 19 -3 19 3 25 0 25 -13 0 -14
3 -15 15 -5 16 13 59 4 50 -11 -4 -5 -2 -9 4 -9 5 0 11 5 13 10 2 6 18 11 36
13 25 1 32 7 32 22 0 15 -2 17 -9 6 -8 -13 -31 -8 -31 8 0 12 48 7 62 -7 10
-10 10 -15 -2 -22 -12 -7 -12 -12 -3 -21 10 -10 14 -8 19 7 15 39 54 47 54 10
0 -19 4 -23 20 -19 18 5 24 -4 22 -28 -1 -3 9 -4 22 -2 13 3 27 0 30 -6 8 -13
26 -15 26 -3 0 5 -10 14 -22 21 -13 6 -15 9 -5 6 22 -6 36 23 16 36 -23 15
-39 11 -32 -8 6 -17 5 -17 -14 0 -20 17 -24 42 -9 65 4 7 1 12 -8 12 -9 0 -16
4 -16 9 0 12 35 20 51 11 20 -13 38 15 36 58 -1 31 -4 39 -14 31 -9 -8 -11 -5
-10 10 0 11 4 18 8 15 4 -2 9 3 13 11 3 8 1 15 -5 15 -6 0 -8 7 -5 16 5 12 2
15 -10 10 -8 -3 -24 -6 -35 -6 -15 0 -19 -7 -19 -31 0 -19 -4 -28 -11 -24 -6
4 -8 9 -5 12 3 3 1 13 -4 23 -12 23 -57 31 -71 13z"/>
<path d="M2246 2620 c3 -14 3 -22 -1 -18 -10 10 -37 -11 -30 -23 7 -11 -37 -8
-52 4 -7 5 -17 6 -22 3 -5 -4 -12 -2 -16 4 -3 5 -11 10 -16 10 -6 0 -7 -4 -4
-10 3 -5 2 -10 -2 -10 -14 0 -33 -38 -27 -54 3 -8 14 -16 23 -19 14 -3 17 0
14 14 -6 21 13 27 20 7 4 -10 7 -10 18 0 11 10 10 12 -3 12 -18 0 -34 18 -25
27 3 3 12 1 19 -3 7 -5 27 -9 43 -9 20 0 29 -5 27 -14 -5 -22 16 -39 43 -33
22 4 26 0 31 -28 7 -31 37 -53 74 -54 8 -1 20 -12 27 -26 11 -22 12 -13 12 63
-1 74 -4 87 -18 87 -14 1 -14 2 2 11 15 9 15 12 3 25 -18 17 -27 18 -23 2 3
-18 -38 -21 -52 -4 -7 8 -19 12 -27 9 -8 -3 -14 -1 -14 4 0 5 -7 18 -16 29
-14 18 -15 18 -8 -6z"/>
<path d="M2348 2354 c-8 -13 25 -48 35 -37 4 3 7 -3 7 -14 0 -28 -20 -34 -43
-15 -16 14 -19 14 -27 2 -14 -21 -12 -30 4 -24 8 3 17 1 21 -5 3 -7 -2 -11
-14 -11 -12 0 -21 -4 -21 -9 0 -6 16 -7 35 -4 28 4 35 2 35 -11 0 -18 -8 -20
-30 -6 -9 6 -17 5 -21 -2 -5 -7 -12 -3 -20 10 l-14 22 -22 -28 c-15 -19 -21
-22 -19 -10 1 10 5 21 9 24 20 21 -6 64 -34 57 -11 -3 -18 4 -23 21 -7 29 -30
34 -43 11 -8 -13 -14 -12 -46 5 -43 24 -50 9 -11 -27 17 -15 33 -22 45 -18 11
4 19 2 19 -6 0 -8 -10 -9 -31 -5 -17 3 -35 6 -40 6 -5 0 -9 7 -9 15 0 13 -4
14 -20 5 -19 -10 -20 -9 -15 17 5 21 4 24 -4 13 -8 -12 -13 -12 -23 -2 -16 16
-33 15 -19 -2 6 -7 12 -25 13 -39 2 -19 7 -26 18 -22 18 5 35 -4 43 -25 4 -12
6 -11 6 3 1 18 41 25 41 7 0 -5 -5 -10 -11 -10 -8 0 -8 -5 1 -15 7 -8 22 -15
34 -14 11 0 16 3 10 5 -12 5 -7 44 6 44 4 0 14 -21 22 -47 17 -52 28 -61 51
-39 13 14 16 14 21 1 7 -19 74 -13 88 7 8 10 11 10 15 1 2 -7 11 -13 19 -13
11 0 14 18 14 80 0 72 -2 80 -19 80 -11 0 -21 8 -23 18 -2 11 -6 13 -10 6z"/>
</g>
</svg>
